<?xml version="1.0" encoding="UTF-8" standalone="no"?>
<svg
   xmlns:dc="http://purl.org/dc/elements/1.1/"
   xmlns:cc="http://creativecommons.org/ns#"
   xmlns:rdf="http://www.w3.org/1999/02/22-rdf-syntax-ns#"
   xmlns:svg="http://www.w3.org/2000/svg"
   xmlns="http://www.w3.org/2000/svg"
   xmlns:sodipodi="http://sodipodi.sourceforge.net/DTD/sodipodi-0.dtd"
   xmlns:inkscape="http://www.inkscape.org/namespaces/inkscape"
   version="1.1"
   id="svg2"
   xml:space="preserve"
   width="1333.3333"
   height="1066.6667"
   viewBox="0 0 1333.3333 1066.6667"
   sodipodi:docname="29012019-34.eps"><metadata
     id="metadata8"><rdf:RDF><cc:Work
         rdf:about=""><dc:format>image/svg+xml</dc:format><dc:type
           rdf:resource="http://purl.org/dc/dcmitype/StillImage" /></cc:Work></rdf:RDF></metadata><defs
     id="defs6"><clipPath
       clipPathUnits="userSpaceOnUse"
       id="clipPath20"><path
         d="m 7156.4,3993.75 -904.88,267.01 c -8.23,2.43 -16.46,4.75 -24.69,6.96 C 5607.16,4434.66 5000,3957.8 5000,3316.03 V 1827.6 c 3.43,10.63 6.95,21.52 10.59,32.78 147.7,456.92 589.27,753.16 1068.06,716.51 l 806.17,-61.69 c 392.27,-30.02 741.97,245.88 804.04,634.37 v 0 c 59.96,375.23 -168,736.64 -532.46,844.18 z"
         id="path18" /></clipPath><linearGradient
       x1="0"
       y1="0"
       x2="1"
       y2="0"
       gradientUnits="userSpaceOnUse"
       gradientTransform="matrix(-3994.97,-4335.9,-4335.9,3994.97,7331.03,4403.2)"
       spreadMethod="pad"
       id="linearGradient28"><stop
         style="stop-opacity:1;stop-color:#7eca2d"
         offset="0"
         id="stop22" /><stop
         style="stop-opacity:1;stop-color:#2a943f"
         offset="0.550209"
         id="stop24" /><stop
         style="stop-opacity:1;stop-color:#216833"
         offset="1"
         id="stop26" /></linearGradient><clipPath
       clipPathUnits="userSpaceOnUse"
       id="clipPath38"><path
         d="m 6782.85,5918.12 -748.13,220.75 c -6.8,2.01 -13.61,3.93 -20.41,5.76 C 5501.98,6282.65 5000,5888.39 5000,5357.8 V 4127.2 c 2.84,8.8 5.74,17.8 8.75,27.11 122.12,377.76 487.19,622.69 883.04,592.39 l 666.53,-51.01 c 324.31,-24.82 613.43,203.29 664.75,524.48 v 0 c 49.57,310.23 -138.9,609.04 -440.22,697.95 z"
         id="path36" /></clipPath><linearGradient
       x1="0"
       y1="0"
       x2="1"
       y2="0"
       gradientUnits="userSpaceOnUse"
       gradientTransform="matrix(-6259.08,-6783.59,-6783.59,6259.08,6794.67,6111.76)"
       spreadMethod="pad"
       id="linearGradient46"><stop
         style="stop-opacity:1;stop-color:#4fa6e1"
         offset="0"
         id="stop40" /><stop
         style="stop-opacity:1;stop-color:#3974be"
         offset="0.539326"
         id="stop42" /><stop
         style="stop-opacity:1;stop-color:#2c3f92"
         offset="1"
         id="stop44" /></linearGradient><clipPath
       clipPathUnits="userSpaceOnUse"
       id="clipPath56"><path
         d="m 2843.6,4745.54 904.88,267.01 c 8.23,2.43 16.46,4.75 24.69,6.96 C 4392.84,5186.45 5000,4709.58 5000,4067.82 V 2579.39 c -3.43,10.63 -6.94,21.52 -10.59,32.78 -147.7,456.92 -589.26,753.16 -1068.06,716.51 l -806.17,-61.69 c -392.27,-30.02 -741.96,245.88 -804.04,634.36 v 0.01 c -59.96,375.23 168,736.64 532.46,844.18 z"
         id="path54" /></clipPath><radialGradient
       fx="0"
       fy="0"
       cx="0"
       cy="0"
       r="1"
       gradientUnits="userSpaceOnUse"
       gradientTransform="matrix(7938.11,0,0,7938.11,2309.31,5054.85)"
       spreadMethod="pad"
       id="radialGradient62"><stop
         style="stop-opacity:1;stop-color:#ea0f65"
         offset="0"
         id="stop58" /><stop
         style="stop-opacity:1;stop-color:#b11650"
         offset="1"
         id="stop60" /></radialGradient></defs><sodipodi:namedview
     pagecolor="#ffffff"
     bordercolor="#666666"
     borderopacity="1"
     objecttolerance="10"
     gridtolerance="10"
     guidetolerance="10"
     inkscape:pageopacity="0"
     inkscape:pageshadow="2"
     inkscape:window-width="640"
     inkscape:window-height="480"
     id="namedview4" /><g
     id="g10"
     inkscape:groupmode="layer"
     inkscape:label="ink_ext_XXXXXX"
     transform="matrix(1.3333333,0,0,-1.3333333,0,1066.6667)"><g
       id="g12"
       transform="scale(0.1)"><g
         id="g14"><g
           id="g16"
           clip-path="url(#clipPath20)"><path
             d="m 7156.4,3993.75 -904.88,267.01 c -8.23,2.43 -16.46,4.75 -24.69,6.96 C 5607.16,4434.66 5000,3957.8 5000,3316.03 V 1827.6 c 3.43,10.63 6.95,21.52 10.59,32.78 147.7,456.92 589.27,753.16 1068.06,716.51 l 806.17,-61.69 c 392.27,-30.02 741.97,245.88 804.04,634.37 v 0 c 59.96,375.23 -168,736.64 -532.46,844.18"
             style="fill:url(#linearGradient28);fill-opacity:1;fill-rule:nonzero;stroke:none"
             id="path30" /></g></g><g
         id="g32"><g
           id="g34"
           clip-path="url(#clipPath38)"><path
             d="m 6782.85,5918.12 -748.13,220.75 c -6.8,2.01 -13.61,3.93 -20.41,5.76 C 5501.98,6282.65 5000,5888.39 5000,5357.8 V 4127.2 c 2.84,8.8 5.74,17.8 8.75,27.11 122.12,377.76 487.19,622.69 883.04,592.39 l 666.53,-51.01 c 324.31,-24.82 613.43,203.29 664.75,524.48 v 0 c 49.57,310.23 -138.9,609.04 -440.22,697.95"
             style="fill:url(#linearGradient46);fill-opacity:1;fill-rule:nonzero;stroke:none"
             id="path48" /></g></g><g
         id="g50"><g
           id="g52"
           clip-path="url(#clipPath56)"><path
             d="m 2843.6,4745.54 904.88,267.01 c 8.23,2.43 16.46,4.75 24.69,6.96 C 4392.84,5186.45 5000,4709.58 5000,4067.82 V 2579.39 c -3.43,10.63 -6.94,21.52 -10.59,32.78 -147.7,456.92 -589.26,753.16 -1068.06,716.51 l -806.17,-61.69 c -392.27,-30.02 -741.96,245.88 -804.04,634.36 v 0.01 c -59.96,375.23 168,736.64 532.46,844.18"
             style="fill:url(#radialGradient62);fill-opacity:1;fill-rule:nonzero;stroke:none"
             id="path64" /></g></g></g></g></svg>
