<svg width="602" height="602" viewBox="0 0 602 602" fill="none" xmlns="http://www.w3.org/2000/svg">
<path fill-rule="evenodd" clip-rule="evenodd" d="M247.858 463.75C331.941 487.395 372.855 396.655 444.898 403.559C484.335 407.338 562.942 426.491 562.767 286.968C562.327 196.891 479.302 174.335 393.686 220.53C368.492 230.382 348.602 227.329 327.006 217.539C305.41 207.75 277.636 164.048 225.288 155.057C67.7576 128.001 -67.0302 375.199 247.858 463.75Z" fill="#407DDA"/>
<path fill-rule="evenodd" clip-rule="evenodd" d="M441.153 231.445C442.73 230.678 445.56 232.166 443.919 234.56C440.283 239.86 454.343 250.448 449.83 241.118C449.348 240.12 446.872 233.222 450.374 236.783C453.876 240.345 458.758 256.084 455.6 261.507C452.829 266.266 445.496 268.53 435.486 268.798L435.035 268.808L434.822 268.821C428.921 269.096 424.446 265.444 421.557 258.331L421.419 257.984C418.495 250.539 419.297 244.571 424.025 240.548C424.111 240.475 424.203 240.409 424.3 240.352L424.448 240.271L441.153 231.445Z" fill="white"/>
<path fill-rule="evenodd" clip-rule="evenodd" d="M122.347 92.1177C121.658 91.1409 120.543 90.5784 119.352 90.7243C118.132 90.8723 117.112 91.7205 116.741 92.8909L116.642 93.2038C116.567 93.4349 116.477 93.6994 116.372 93.997C116.073 94.8465 115.71 95.7894 115.281 96.8034C114.063 99.6864 112.563 102.564 110.772 105.241C106.909 111.016 102.254 115.036 96.7974 116.585C95.9445 116.827 95.4492 117.714 95.6913 118.567C95.8141 119 103.783 122.983 111.919 121.979C119.81 121.005 127.876 115.056 127.941 114.651L128.04 113.808L128.068 113.526C128.633 107.396 127.56 100.473 123.433 93.7655C123.09 93.2084 122.728 92.659 122.347 92.1177Z" fill="#E7EAEE"/>
<path fill-rule="evenodd" clip-rule="evenodd" d="M138.768 93.9008L138.726 94.225C138.155 98.3745 136.553 104.153 133.656 108.512C130.089 113.879 125.055 117.983 119.997 120.628C112.7 124.443 104.757 125.142 96.9359 120.185L96.591 119.963C92.481 117.275 89.3622 115.981 85.0829 117.049C80.8035 118.117 78.725 121.234 76.8777 124.125L76.7931 124.248C76.497 124.643 76.0638 124.917 75.5756 125.014L67.4619 126.299L70.4166 129.969C71.3059 131.082 71.9381 131.884 72.313 132.376L75.5606 136.654C85.2396 149.348 95.6557 161.469 115.968 157.273L116.656 157.125C122.038 155.929 126.55 159.142 132.21 163.877L133.419 164.896C134.917 166.163 139.443 170.153 141.296 172.074L141.901 172.71L142.46 173.311C142.576 173.437 142.687 173.559 142.793 173.676L143.37 174.327L143.725 173.908C147.556 169.296 149.956 162.27 151.198 156.475C151.668 154.285 151.937 152.188 152.049 150.254L152.063 150.002C152.092 149.437 152.105 148.943 152.107 148.53V148.224L151.528 148.394C144.829 150.294 137.292 150.483 129.937 149.634C128.16 149.429 147.65 133.644 143.649 113.201C142.738 108.542 142.159 102.312 140.567 98.0838C140.064 96.7503 139.544 95.5308 139.028 94.4403L138.768 93.9008Z" fill="white"/>
<path fill-rule="evenodd" clip-rule="evenodd" d="M442 233.97L425.326 242.076C421.329 245.477 420.649 250.535 423.287 257.251C424.212 259.607 426.527 265.22 426.527 263.015C426.527 262.326 442 252.212 444.969 253.202C447.714 254.117 442.783 245.869 441.401 242.076L442 233.763L442.459 232.935" fill="#E7EAEE"/>
<path fill-rule="evenodd" clip-rule="evenodd" d="M419.753 240.054C420.861 240.054 414.581 243.007 414.905 248.454C415.229 253.901 419.485 263.939 418.45 264.335C417.415 264.73 415.452 261.804 415.057 260.769C412.595 254.327 412.129 251.699 412.217 247.942C412.333 243.024 414.918 240.054 419.753 240.054Z" fill="#E7EAEE"/>
<ellipse cx="447.697" cy="245.449" rx="4.33456" ry="9.79187" fill="#E7EAEE"/>
<path fill-rule="evenodd" clip-rule="evenodd" d="M144.935 348.691C144.935 331.701 146.823 324.314 167.094 315.041C208.64 298.248 208.64 297.601 288.232 266.829C309.281 258.733 353.657 278.127 372.954 269.999C385.818 264.58 397.849 260.557 408.477 255.183C409.506 261.904 416.159 273.283 418.503 275.239C406.057 277.851 394.017 281.89 382.385 287.356C357.238 299.173 372.139 295.953 332.308 333.515C328.933 336.698 316.529 343.956 298.593 351.516C298.593 351.516 262.473 346.665 247.987 340.64C233.244 334.507 210.904 315.041 210.904 315.041C210.904 315.041 184.849 332.039 169.87 339.68C162.859 343.256 144.935 348.691 144.935 348.691Z" fill="white"/>
<path fill-rule="evenodd" clip-rule="evenodd" d="M144.935 339.862C144.935 335.874 144.514 333.09 144.935 330.012C146.309 319.975 151.692 314.84 167.205 307.744C208.751 290.951 208.64 288.772 288.232 257.999C309.281 249.904 353.657 269.297 372.954 261.17C385.818 255.751 397.849 251.728 408.477 246.354C408.507 246.546 407.401 255.731 407.401 255.731C407.401 255.731 381.163 269.586 363.807 272.524C345.366 275.645 320.037 261.17 294.746 268.289C256.23 279.131 167.473 313.209 156.974 321.75C148.723 328.46 144.935 339.862 144.935 339.862Z" fill="#E7EAEE"/>
<path fill-rule="evenodd" clip-rule="evenodd" d="M122.347 92.1177C121.658 91.1409 120.543 90.5784 119.352 90.7243C118.132 90.8723 117.112 91.7205 116.741 92.8909L116.642 93.2038C116.567 93.4349 116.477 93.6994 116.372 93.997C116.073 94.8465 115.71 95.7894 115.281 96.8034C114.063 99.6864 112.563 102.564 110.772 105.241C106.909 111.016 102.254 115.036 96.7974 116.585C95.9445 116.827 95.4492 117.714 95.6913 118.567C95.9333 119.42 109.191 113.379 113.441 107.026C115.354 104.166 116.946 101.112 118.239 98.0536C118.629 97.1308 118.968 96.2616 119.259 95.4595L119.4 95.0641C119.514 94.741 119.612 94.4513 119.695 94.1955C119.716 94.013 119.736 93.9519 119.754 94.0123C128.95 100.304 125.335 115.918 126.218 115.994C127.062 116.067 127.808 115.473 127.941 114.651L128.04 113.808L128.068 113.526C128.633 107.396 127.56 100.473 123.433 93.7655C123.09 93.2084 122.728 92.659 122.347 92.1177Z" fill="#E7EAEE"/>
<path fill-rule="evenodd" clip-rule="evenodd" d="M141.496 92.0705L141.699 92.4322L141.946 92.8965C142.095 93.1823 142.262 93.5139 142.444 93.8883C143.075 95.1862 143.712 96.6549 144.322 98.2747C146.039 102.834 147.24 107.755 147.65 112.881C148.206 119.838 147.202 126.403 144.659 132.376L144.441 132.877C142.375 137.543 139.364 141.818 135.457 145.653L135.07 146.028L135.399 146.044C141.026 146.281 146.591 145.777 151.483 144.217C152.532 143.883 153.675 144.055 154.579 144.684C155.481 145.311 156.042 146.321 156.098 147.418L156.111 147.759L156.119 148.209V148.382C156.119 149.01 156.1 149.714 156.056 150.486C155.932 152.617 155.637 154.916 155.122 157.316C153.669 164.096 150.763 170.446 146.014 175.797C145.383 176.507 144.497 176.932 143.554 176.983L143.336 176.988C142.329 176.969 141.41 176.553 140.757 175.842L140.278 175.286L140.044 175.02L139.545 174.466L138.999 173.877C138.809 173.675 138.612 173.467 138.407 173.255C136.663 171.447 134.739 169.654 132.695 168.005C127.029 163.433 121.564 160.852 116.897 161.131C109.262 161.59 102.939 161.234 97.0738 159.588C89.4906 157.46 83.5362 153.286 79.5957 146.64L79.3748 146.261C77.3347 142.703 74.3217 138.605 70.7676 134.339C69.6692 133.021 68.5858 131.767 67.5532 130.608L67.1138 130.117C66.4104 129.334 65.834 128.711 65.5924 128.457C64.7005 127.517 64.3905 126.169 64.7802 124.935L64.8374 124.769C65.2654 123.616 66.261 122.763 67.4744 122.523L73.9811 121.237L74.0569 121.128C76.385 117.818 79.7092 115.015 84.1248 113.886C88.7306 112.708 93.5773 113.732 98.4582 116.829L98.7988 117.049C105.391 121.36 111.925 121.122 118.137 117.874C122.575 115.554 126.804 111.614 130.009 106.792C132.989 102.309 134.76 97.5159 134.886 93.7331C134.939 92.1522 136.029 90.7949 137.563 90.4078C139.098 90.0198 140.703 90.6995 141.496 92.0705ZM138.768 93.9007L138.726 94.2249C138.155 98.3744 136.553 104.153 133.656 108.512C130.089 113.879 125.055 117.983 119.997 120.628C112.7 124.443 104.757 125.142 96.9358 120.185L96.5908 119.963C92.4808 117.275 89.362 115.981 85.0827 117.049C80.8033 118.117 78.7249 121.234 76.8775 124.125L76.7929 124.248C76.4968 124.643 76.0636 124.917 75.5754 125.014L67.4617 126.299L70.4165 129.969C71.3058 131.082 71.9379 131.884 72.3128 132.376L75.5604 136.654C85.2394 149.348 95.6556 161.469 115.968 157.273L116.656 157.125C122.038 155.929 126.55 159.142 132.21 163.877L133.419 164.896C134.916 166.163 139.443 170.153 141.296 172.074L141.901 172.71L142.46 173.311C142.576 173.437 142.687 173.559 142.792 173.676L143.37 174.327L143.724 173.908C147.556 169.296 149.956 162.27 151.198 156.475C151.667 154.285 151.937 152.188 152.049 150.254L152.063 150.002C152.092 149.436 152.105 148.943 152.107 148.53V148.224L151.528 148.394C144.829 150.294 137.291 150.483 129.937 149.634C128.16 149.429 147.65 133.644 143.649 113.201C142.737 108.542 142.159 102.312 140.566 98.0838C140.064 96.7502 139.544 95.5307 139.028 94.4403L138.768 93.9007Z" fill="#E7EAEE"/>
<path fill-rule="evenodd" clip-rule="evenodd" d="M87.8918 130.032C89.4409 130.032 90.7012 128.772 90.7012 127.223C90.7012 125.674 89.4409 124.413 87.8918 124.413C86.3427 124.413 85.0825 125.674 85.0825 127.223C85.0825 128.772 86.3427 130.032 87.8918 130.032Z" fill="#00160A"/>
<ellipse cx="90.2999" cy="137.657" rx="4.41466" ry="3.612" fill="#FFB61D"/>
<ellipse cx="90.2999" cy="137.657" rx="4.41466" ry="3.612" fill="#FFB61D"/>
<path fill-rule="evenodd" clip-rule="evenodd" d="M141.496 95.0705L141.699 95.4322L141.946 95.8965C142.095 96.1823 142.262 96.5139 142.444 96.8883C143.075 98.1862 143.712 99.6549 144.322 101.275C146.039 105.834 147.24 110.755 147.65 115.881C148.206 122.838 147.202 129.403 144.658 135.376L144.441 135.877C142.375 140.543 139.364 144.818 135.457 148.653L135.069 149.028L135.399 149.044C141.026 149.281 146.591 148.777 151.482 147.217C152.531 146.883 153.675 147.055 154.579 147.684C155.481 148.311 156.041 149.321 156.098 150.418L156.111 150.759L156.119 151.209V151.382C156.119 152.01 156.1 152.714 156.055 153.486C155.932 155.617 155.637 157.916 155.122 160.316C153.669 167.096 150.763 173.446 146.014 178.797C145.383 179.507 144.496 179.932 143.554 179.983L143.336 179.988C142.329 179.969 141.41 179.553 140.757 178.842L140.278 178.286L140.044 178.02L139.545 177.466L138.999 176.877C138.809 176.675 138.612 176.467 138.407 176.255C136.663 174.447 134.739 172.654 132.695 171.005C127.029 166.433 121.564 163.852 116.897 164.131C109.262 164.59 102.939 164.234 97.0736 162.588C89.4904 160.46 83.536 156.286 79.5955 149.64L79.3746 149.261C77.3345 145.703 74.3215 141.605 70.7674 137.339C69.669 136.021 68.5856 134.767 67.553 133.608L67.1136 133.117C66.4102 132.334 65.8338 131.711 65.5922 131.457C64.7003 130.517 64.3903 129.169 64.78 127.935L64.8372 127.769C65.2652 126.616 66.2608 125.763 67.4742 125.523L73.9809 124.237L74.0567 124.128C76.3848 120.818 79.709 118.015 84.1246 116.886C88.4711 115.775 93.0321 116.624 97.6339 119.326C102.731 117.618 107.108 113.719 110.772 108.241C112.563 105.564 114.063 102.686 115.281 99.8035C115.71 98.7894 116.073 97.8465 116.372 96.997C116.477 96.6995 116.566 96.4349 116.642 96.2038L116.741 95.8909C117.112 94.7205 118.132 93.8723 119.352 93.7243C120.543 93.5784 121.658 94.1409 122.347 95.1177C122.728 95.659 123.09 96.2084 123.433 96.7655C126.637 101.972 128 107.309 128.186 112.303C128.823 111.497 129.433 110.659 130.009 109.792C132.989 105.309 134.76 100.516 134.886 96.7331C134.939 95.1522 136.029 93.7949 137.563 93.4078C139.098 93.0198 140.703 93.6995 141.496 95.0705ZM118.137 120.874C112.103 124.029 105.765 124.344 99.365 120.408C103.674 118.416 110.588 114.291 113.441 110.026C115.354 107.166 116.946 104.112 118.239 101.054C118.629 100.131 118.968 99.2616 119.259 98.4595L119.4 98.0641C119.514 97.741 119.612 97.4513 119.695 97.1955C119.716 97.013 119.736 96.9519 119.754 97.0123C125.867 101.194 126.319 109.496 126.195 114.615C123.737 117.237 120.98 119.388 118.137 120.874ZM119.997 123.628C122.445 122.348 124.888 120.725 127.162 118.783C127.337 118.681 127.492 118.547 127.617 118.388C129.864 116.406 131.931 114.106 133.655 111.512C136.553 107.153 138.154 101.374 138.726 97.2249L138.768 96.9007L139.028 97.4403C139.543 98.5307 140.064 99.7502 140.566 101.084C141.674 104.026 142.292 107.938 142.872 111.615C143.125 113.222 143.372 114.784 143.649 116.201C146.715 131.87 135.982 144.802 131.601 150.08C130.267 151.689 129.521 152.586 129.936 152.634C137.291 153.483 144.829 153.294 151.528 151.394L152.107 151.224V151.53C152.105 151.943 152.092 152.436 152.063 153.002L152.049 153.254C151.937 155.188 151.667 157.285 151.198 159.475C149.956 165.27 147.556 172.296 143.724 176.908L143.37 177.327L142.792 176.676C142.687 176.559 142.576 176.437 142.46 176.311L141.901 175.71L141.296 175.074C139.443 173.153 134.916 169.163 133.419 167.896L132.21 166.877C126.549 162.142 122.037 158.929 116.656 160.125L115.968 160.273C95.6554 164.469 85.2392 152.348 75.5602 139.654L72.3126 135.376C71.9377 134.884 71.3056 134.082 70.4163 132.969L67.4615 129.299L75.5752 128.014C76.0634 127.917 76.4966 127.643 76.7927 127.248L76.8774 127.125C78.7247 124.234 80.8031 121.117 85.0825 120.049C89.3618 118.981 92.4806 120.275 96.5906 122.963L96.9356 123.185C104.756 128.142 112.7 127.443 119.997 123.628ZM441.152 234.445C442.73 233.678 445.56 235.165 443.918 237.56C441.433 241.183 444.194 249.599 445.876 254.724L445.876 254.725C446.655 257.096 447.201 258.763 446.891 258.925C445.909 259.438 444.696 259.058 444.183 258.076C441.403 252.757 439.807 248.533 439.409 245.323C439.211 243.726 439.167 242.18 439.279 240.689L439.293 240.517L426.443 246.764L426.28 246.913C423.38 249.635 422.103 252.794 424.226 258.39L424.352 258.715C426.656 264.582 430.557 268.791 434.616 268.616L434.933 268.599C443.953 268.419 449.343 265.704 451.267 262.399C453.687 258.244 454.343 253.448 449.83 244.118C449.347 243.12 446.872 236.222 450.374 239.783C453.876 243.345 458.758 259.084 455.6 264.507C452.964 269.034 446.2 271.304 436.93 271.745C436.984 271.981 436.996 272.231 436.958 272.485C436.081 278.444 433.361 282.192 428.812 283.277C425.334 284.106 421.596 283.007 418.172 280.36C406.143 282.944 394.499 286.881 383.238 292.172L381.57 292.962C375.825 295.707 372.53 297.546 370.125 299.334C368.713 300.383 367.548 301.457 366.295 302.84L366.093 303.07C365.484 303.775 364.158 305.395 362.65 307.238C360.642 309.69 358.312 312.537 356.921 314.147L356.25 314.92C350.598 321.395 343.475 328.742 333.685 337.975L333.411 338.226C329.74 341.506 319.986 347.052 307.822 352.644C341.391 351.451 365.597 338.638 380.671 314.184C381.334 313.108 382.815 312.906 383.742 313.765C409.663 337.771 439.697 348.881 473.959 347.146C508.313 345.406 533.523 336.478 549.666 320.447C550.453 319.666 551.723 319.671 552.504 320.457C553.285 321.244 553.281 322.514 552.494 323.295C535.559 340.112 499.604 352.73 464.344 354.516C430.053 356.252 409.592 342.123 383.431 318.9L382.792 318.329L382.562 318.681C365.994 343.79 329.996 362.105 294.073 362.364L292.947 362.368C256.203 362.368 235.012 344.576 210.222 320.259L210.029 320.068L209.941 320.144L208.848 321.062L207.775 321.965C184.547 341.513 167.215 356.099 141.143 359.825L140.311 359.941C110.915 365.889 66.3312 350.046 59.48 342.281C53.2025 335.166 60.5247 339.588 62.5348 340.803C62.7184 340.913 62.8578 340.998 62.9383 341.044C82.3949 352.183 104.828 356.425 131.742 352.754C135.457 352.247 139.148 351.577 142.815 350.742L142.773 350.347C141.597 339.185 141.591 334.307 143.284 328.708C145.587 321.091 151.179 315.304 161.238 310.703L164.008 309.479C176.433 304.003 186.301 299.891 196.537 295.897L197.286 295.605C198.434 295.158 199.597 294.709 200.784 294.253L201.947 293.81C202.368 293.661 207.85 291.488 216.184 288.184L216.187 288.183L216.187 288.183L216.193 288.18C235.42 280.558 269.814 266.923 292.253 258.247C297.107 256.38 302.985 255.759 310.195 256.132L310.816 256.166C316.217 256.484 321.529 257.217 330.237 258.724L337.889 260.064C346.433 261.543 350.573 262.126 355.406 262.47C356.926 262.579 358.37 262.713 359.743 262.84C364.825 263.313 368.916 263.693 372.175 262.32C375.074 261.099 377.916 259.92 380.701 258.765L380.701 258.765C389.809 254.987 398.304 251.463 406.188 247.544C406.729 244.038 408.11 241.45 410.275 239.745C413.614 237.115 418.341 237.071 422.441 238.665C423.474 239.067 423.985 240.23 423.584 241.263C423.454 241.597 422.619 241.443 421.437 241.225C418.967 240.77 414.982 240.035 412.758 242.898C410.284 246.083 409.462 250.962 411.653 260.57C413.241 267.533 423.534 279.373 427.881 279.373C432.728 279.373 433.862 274.667 434.505 271.998L434.545 271.831C428.781 271.98 424.4 268.332 421.557 261.331L421.419 260.984C418.495 253.539 419.296 247.571 424.025 243.548C424.111 243.475 424.203 243.409 424.299 243.352L424.448 243.271L441.152 234.445ZM414.47 276.732C414.267 276.487 414.066 276.235 413.868 275.977C413.792 275.896 413.72 275.816 413.657 275.74C413.558 275.619 413.457 275.497 413.354 275.373C413.274 275.277 413.194 275.18 413.112 275.083L413.11 275.08L413.096 275.063C411.54 273.195 409.739 271.03 408.328 267.909L408.123 267.454C405.859 262.384 405.59 256.688 405.728 251.992L405.75 251.446L405.63 251.507C396.278 256.135 386.105 260.778 375.111 265.437L373.733 266.019C369.026 268.002 363.146 269.402 355.697 268.921L355.121 268.882C350.032 268.519 345.751 267.911 336.775 266.352L330.073 265.177C311.181 261.906 301.728 261.396 293.937 264.309C293.937 264.309 177.765 308.009 162.886 314.362C153.837 318.502 150.767 322.397 147.025 328.708C145.09 331.972 145.285 340.977 145.421 347.231L145.421 347.232C145.444 348.281 145.465 349.253 145.474 350.107C167.44 344.613 188.556 333.192 208.833 315.82C209.632 315.135 210.825 315.184 211.565 315.933C213.206 317.591 214.874 319.193 216.569 320.74L300.226 285.788C300.456 285.693 300.693 285.643 300.927 285.634C301.557 285.337 302.237 285.091 302.966 284.897C310.261 282.958 316.086 286.113 320.111 293.879L327.403 288.56C328.478 287.776 330.006 288.237 330.467 289.485C337.122 307.469 335.183 319.791 324.226 325.737C313.176 331.733 303.566 326.789 296.074 311.803C295.694 311.042 295.843 310.164 296.369 309.571C294.583 302.316 294.252 296.535 295.467 292.349L222.172 325.565C233.132 334.462 245.167 341.173 258.285 345.7C258.585 345.412 258.91 345.166 259.229 344.991C270.279 338.938 297.502 331.868 304.227 330.122C304.808 329.971 305.237 329.859 305.488 329.792C308.643 328.947 305.41 331.895 304.458 332.334L304.337 332.386L264.603 347.687C276.423 351.053 289.08 352.736 302.579 352.736C303.347 352.736 304.11 352.73 304.868 352.719L305.757 352.141C314.253 346.618 328.464 337.381 330.932 335.055L332.083 333.966C340.263 326.028 346.352 318.413 351.666 311.765C357.497 304.472 362.397 298.344 368.106 294.233C372.545 291.037 374.154 290.306 377.934 288.59C378.946 288.131 380.113 287.601 381.531 286.935C391.559 282.222 402.948 279.493 413.638 276.932L413.638 276.932L414.47 276.732ZM303.997 288.776C309.777 287.239 314.106 289.953 317.406 297.534L308.887 304.29L308.887 304.29L308.872 304.296L300.062 307.772L299.842 306.805C297.43 295.869 299.002 290.104 303.997 288.776ZM311.379 305.184C311.219 304.896 310.998 304.662 310.74 304.489C311.007 304.667 311.233 304.911 311.392 305.209L311.379 305.184ZM206.878 379.928C207.81 379.328 214.243 376.189 208.514 382.089C202.785 387.988 158.17 413.015 134.087 414.401C110.875 415.737 90.2651 406.043 72.3342 393.355L71.7399 392.931L71.6215 393.084C70.8277 394.09 70.0121 395.003 69.1739 395.823L68.8133 396.169C67.2945 397.595 64.6659 399.209 60.868 401.085C59.8743 401.575 56.3633 402.027 58.1801 400.174C59.9969 398.321 63.9734 395.654 66.2892 394.124C67.8026 393.125 68.2806 391.956 68.7548 390.796C69.0062 390.181 69.2565 389.569 69.6595 388.986C70.3069 388.049 71.6028 387.838 72.5137 388.521C90.1904 401.769 110.84 408.832 134.087 407.494C157.43 406.151 181.538 396.232 206.878 379.928ZM344.173 392.722C344.987 391.97 344.987 386.609 344.173 387.36C335.157 395.68 316.28 402.997 292.988 404.338C269.666 405.68 251.329 402.013 237.944 393.406C237.011 392.806 232.397 391.221 235.17 394.008C237.944 396.795 269.114 411.337 293.218 409.95L293.94 409.907C317.691 408.457 334.435 401.707 344.173 392.722ZM327.709 293.752L327.588 293.391L321.547 297.8L321.658 298.423C322.873 305.529 322.044 310.173 318.674 312.202L318.498 312.305C314.985 314.274 311.68 312.883 308.915 308.836L308.794 308.656L300.67 311.937L300.858 312.278C307.068 323.484 313.95 326.6 322.05 322.349L322.312 322.21C330.446 317.796 332.45 308.787 327.99 294.626L327.709 293.752ZM90.7013 130.223C90.7013 131.772 89.4411 133.032 87.892 133.032C86.3429 133.032 85.0827 131.772 85.0827 130.223C85.0827 128.674 86.3429 127.413 87.892 127.413C89.4411 127.413 90.7013 128.674 90.7013 130.223Z" fill="#00160A"/>
</svg>
