<svg width="70" height="70" viewBox="0 0 70 70" fill="none" xmlns="http://www.w3.org/2000/svg">
<path d="M68.5781 39.6922L60.1562 31.3403V21.875C60.1562 21.0047 59.8105 20.1701 59.1952 19.5548C58.5798 18.9394 57.7452 18.5937 56.875 18.5937H47.2959L43.8463 15.1736C43.233 14.584 42.4153 14.2548 41.5647 14.2548C40.714 14.2548 39.8964 14.584 39.2831 15.1736L35.8291 18.5937H26.25C25.3798 18.5937 24.5452 18.9394 23.9298 19.5548C23.3145 20.1701 22.9688 21.0047 22.9688 21.875V31.3403L14.5469 39.6922C14.3593 39.9105 14.2446 40.182 14.2188 40.4687V65.625C14.2188 66.4952 14.5645 67.3298 15.1798 67.9452C15.7952 68.5605 16.6298 68.9062 17.5 68.9062H65.625C66.4952 68.9062 67.3298 68.5605 67.9452 67.9452C68.5605 67.3298 68.9062 66.4952 68.9062 65.625V40.4687C68.8779 40.1826 68.7635 39.9119 68.5781 39.6922V39.6922ZM40.8231 16.7234C41.0192 16.5289 41.2842 16.4198 41.5603 16.4198C41.8365 16.4198 42.1014 16.5289 42.2975 16.7234L44.1875 18.5937H38.9375L40.8231 16.7234ZM32.8125 31.7187H50.3125C50.6026 31.7187 50.8808 31.8339 51.0859 32.0391C51.291 32.2442 51.4062 32.5224 51.4062 32.8125C51.4062 33.1025 51.291 33.3807 51.0859 33.5859C50.8808 33.791 50.6026 33.9062 50.3125 33.9062H32.8125C32.5224 33.9062 32.2442 33.791 32.0391 33.5859C31.834 33.3807 31.7188 33.1025 31.7188 32.8125C31.7188 32.5224 31.834 32.2442 32.0391 32.0391C32.2442 31.8339 32.5224 31.7187 32.8125 31.7187ZM32.8125 40.4687H50.3125C50.6026 40.4687 50.8808 40.5839 51.0859 40.7891C51.291 40.9942 51.4062 41.2724 51.4062 41.5625C51.4062 41.8525 51.291 42.1307 51.0859 42.3359C50.8808 42.541 50.6026 42.6562 50.3125 42.6562H32.8125C32.5224 42.6562 32.2442 42.541 32.0391 42.3359C31.834 42.1307 31.7188 41.8525 31.7188 41.5625C31.7188 41.2724 31.834 40.9942 32.0391 40.7891C32.2442 40.5839 32.5224 40.4687 32.8125 40.4687ZM51.4062 47.0115C51.4281 48.2464 51.7136 51.7518 53.3837 54.0432C54.847 56.0079 56.945 57.4057 59.3217 57.9993C59.4613 58.0334 59.5929 58.0946 59.7088 58.1795C59.8248 58.2643 59.9229 58.3712 59.9975 58.494C60.0722 58.6168 60.1219 58.7531 60.1439 58.8951C60.1659 59.0371 60.1597 59.1821 60.1256 59.3217C60.0916 59.4613 60.0304 59.5928 59.9455 59.7088C59.8606 59.8247 59.7537 59.9229 59.6309 59.9975C59.5082 60.0722 59.3719 60.1219 59.2299 60.1439C59.0878 60.1658 58.9429 60.1596 58.8033 60.1256C55.926 59.4053 53.3866 57.7115 51.6163 55.3317C50.1156 52.9567 49.2916 50.2173 49.233 47.4086C46.7029 47.8775 44.1357 48.1172 41.5625 48.125C38.9889 48.1227 36.421 47.8843 33.8909 47.4129C33.8326 50.2202 33.0089 52.9582 31.5088 55.3317C29.7384 57.7115 27.199 59.4053 24.3217 60.1256C24.1821 60.1596 24.0372 60.1658 23.8951 60.1439C23.7531 60.1219 23.6168 60.0722 23.4941 59.9975C23.3713 59.9229 23.2644 59.8247 23.1795 59.7088C23.0946 59.5928 23.0334 59.4613 22.9994 59.3217C22.9653 59.1821 22.9591 59.0371 22.9811 58.8951C23.0031 58.7531 23.0528 58.6168 23.1275 58.494C23.2021 58.3712 23.3002 58.2643 23.4162 58.1795C23.5321 58.0946 23.6637 58.0334 23.8033 57.9993C26.18 57.4057 28.278 56.0079 29.7412 54.0432C31.4114 51.7518 31.6969 48.2464 31.7188 47.0115C31.7188 46.9929 31.7286 46.9765 31.7297 46.9579C26.45 45.6882 21.4543 43.4424 17.0002 40.3364L22.9688 34.4192V41.3864C28.7127 44.3707 35.0895 45.9315 41.5625 45.9375C48.0309 45.9089 54.4013 44.3549 60.1562 41.4017V34.4192L66.1161 40.3254C61.6765 43.4531 56.6787 45.7012 51.3931 46.9481C51.3986 46.969 51.403 46.9902 51.4062 47.0115V47.0115Z" fill="#407DDA"/>
<path d="M42.6562 7.65625H38.2812V4.375C38.2812 3.50476 37.9355 2.67016 37.3202 2.05481C36.7048 1.43945 35.8702 1.09375 35 1.09375H17.5C17.2099 1.09375 16.9317 1.20898 16.7266 1.4141C16.5215 1.61922 16.4062 1.89742 16.4062 2.1875C16.4062 2.47758 16.5215 2.75578 16.7266 2.9609C16.9317 3.16602 17.2099 3.28125 17.5 3.28125H35C35.2901 3.28125 35.5683 3.39648 35.7734 3.6016C35.9785 3.80672 36.0938 4.08492 36.0938 4.375V7.65625H14.2188C10.7389 7.66001 7.40273 9.04403 4.94213 11.5046C2.48153 13.9652 1.09751 17.3014 1.09375 20.7812V32.8125C1.09375 33.6827 1.43945 34.5173 2.05481 35.1327C2.67016 35.748 3.50476 36.0938 4.375 36.0938H14.2188V52.5C14.2188 53.3702 14.5645 54.2048 15.1798 54.8202C15.7952 55.4355 16.6298 55.7812 17.5 55.7812H24.0625C24.9327 55.7812 25.7673 55.4355 26.3827 54.8202C26.998 54.2048 27.3437 53.3702 27.3438 52.5V36.0938H52.5C53.3702 36.0938 54.2048 35.748 54.8202 35.1327C55.4355 34.5173 55.7812 33.6827 55.7812 32.8125V20.7812C55.7775 17.3014 54.3935 13.9652 51.9329 11.5046C49.4723 9.04403 46.1361 7.66001 42.6562 7.65625V7.65625ZM3.28125 32.8125V20.7812C3.28443 17.8814 4.4378 15.1013 6.48829 13.0508C8.53878 11.0003 11.3189 9.84693 14.2188 9.84375H35.4167C33.6085 11.0388 32.1246 12.6632 31.0975 14.5718C30.0705 16.4805 29.5324 18.6138 29.5312 20.7812V33.9062H4.375C4.08492 33.9062 3.80672 33.791 3.6016 33.5859C3.39648 33.3808 3.28125 33.1026 3.28125 32.8125ZM25.1562 52.5C25.1562 52.7901 25.041 53.0683 24.8359 53.2734C24.6308 53.4785 24.3526 53.5938 24.0625 53.5938H17.5C17.2099 53.5938 16.9317 53.4785 16.7266 53.2734C16.5215 53.0683 16.4062 52.7901 16.4062 52.5V36.0938H25.1562V52.5ZM53.5938 32.8125C53.5938 33.1026 53.4785 33.3808 53.2734 33.5859C53.0683 33.791 52.7901 33.9062 52.5 33.9062H31.7188V20.7812C31.7188 17.8804 32.8711 15.0984 34.9223 13.0473C36.9734 10.9961 39.7554 9.84375 42.6562 9.84375C45.5571 9.84375 48.3391 10.9961 50.3902 13.0473C52.4414 15.0984 53.5938 17.8804 53.5938 20.7812V32.8125Z" fill="white"/>
</svg>
