<svg width="607" height="607" viewBox="0 0 607 607" fill="none" xmlns="http://www.w3.org/2000/svg">
<path fill-rule="evenodd" clip-rule="evenodd" d="M559.335 363.936C550.908 383.842 536.291 387.305 520.813 403.188C505.336 419.07 458.854 409.981 442.862 419.225C399.505 444.287 398.141 472.636 324.947 476.309C298.629 477.629 275.544 474.635 252.011 471.586C227.343 468.389 198.101 478.16 164.725 457.685C83.304 407.739 32.6526 325.619 30.7546 282.449C29.2621 248.5 53.5896 225.102 69.9724 209.55C104.796 176.494 149.628 185.581 191.625 173.889C250.883 157.392 288.871 122.523 331.322 124.637C391.25 123.069 428.637 171.576 475.807 173.889C509.346 175.534 621.708 216.595 559.335 363.936Z" fill="#407DDA"/>
<path fill-rule="evenodd" clip-rule="evenodd" d="M197.398 449.539C198.571 452.289 198.665 456.457 195.784 457.256C191.983 455.385 189.275 451.459 188.875 447.241C173.287 447.921 157.698 448.601 142.11 449.281C136.316 449.533 129.165 450.769 127.44 456.306C126.767 451.943 121.005 450.94 116.591 450.999C103.399 451.176 90.2082 451.354 77.017 451.531C76.8158 445.509 76.6147 439.487 76.4136 433.465C76.3746 432.299 76.3473 431.076 76.8706 430.032C78.2757 427.23 82.3108 427.528 85.3613 428.248C84.3807 418.444 83.4002 408.64 82.4196 398.836C77.8713 399.877 79.3345 388.215 74.7564 389.115C71.985 389.66 69.3722 387.115 68.7807 384.353C68.1892 381.592 69.052 378.749 69.9057 376.056C72.4786 375.271 76.1659 376.048 78.7734 375.271C81.3809 374.493 82.97 372.99 82.8789 370.27C80.9874 313.796 76.9036 257.396 70.6399 201.238C66.641 202.959 61.8791 199.854 60.2703 195.809C58.6615 191.764 59.3506 187.208 60.1923 182.937C60.4877 181.438 60.8505 179.846 61.9512 178.786C63.3544 177.436 65.5111 177.351 67.4586 177.347C128.571 177.208 189.684 177.068 250.797 176.929C252.129 176.926 253.597 176.973 254.581 177.87C255.481 178.69 255.718 179.992 255.905 181.195C256.632 185.874 257.345 190.753 255.916 195.267C254.488 199.782 250.218 203.776 245.515 203.224C248.088 258.96 250.66 314.695 253.233 370.431C257.425 369.514 262.329 371.066 264.42 374.814C266.511 378.562 264.604 384.225 260.416 385.163C263.088 387.385 261.798 392.113 258.858 393.965C255.918 395.817 252.178 395.628 248.718 395.311C245.257 394.995 241.564 394.658 238.496 396.289C239.22 403.005 239.13 409.808 238.228 416.503C241.204 414.728 245.232 414.914 248.032 416.955C249.976 418.372 251.743 414.924 251.724 412.518C251.682 406.915 251.639 401.313 251.596 395.71C254.631 402.67 255.475 410.566 253.981 418.01C257.722 418.301 261.463 418.593 265.204 418.885C266.329 418.973 267.547 419.099 268.372 419.869C269.193 420.635 269.406 421.836 269.549 422.95C270.47 430.142 270.333 437.468 269.142 444.62C244.902 442.939 221.901 443.476 197.805 446.611C197.2 446.611 196.226 446.789 197.398 449.539Z" fill="white"/>
<ellipse rx="0.404662" ry="1.61866" transform="matrix(0.933579 0.358372 -0.358364 0.933582 168.746 324.543)" fill="#FFB61D"/>
<path fill-rule="evenodd" clip-rule="evenodd" d="M358.158 332.813C358.158 332.813 354.758 255.567 356.73 216.981C356.945 212.768 357.181 208.45 355.933 204.421C354.686 200.391 351.611 196.643 347.466 195.863C346.648 188.634 346.758 181.301 347.79 174.101C407.536 174.411 467.282 174.722 527.028 175.033C527.243 179.579 527.459 184.125 527.675 188.671C527.879 192.975 526.175 199.069 521.952 198.212C520.236 197.864 519.413 200.231 519.323 201.979C518.582 216.34 517.841 230.701 517.1 245.063C514.897 287.743 512.693 330.488 514.172 373.2C517.99 373.39 521.808 373.581 525.627 373.772C526.64 376.169 527.674 378.72 527.297 381.295C526.919 383.871 524.528 386.338 521.983 385.793C524.201 390.965 518.283 397.449 512.931 395.711C513.361 401.895 513.79 408.079 514.219 414.262C514.3 415.429 514.421 416.693 515.213 417.553C517.683 420.238 522.974 416.093 525.582 418.644C525.935 424.726 526.288 430.808 526.642 436.89C526.738 438.549 526.748 440.439 525.543 441.582C524.734 442.349 523.568 442.576 522.469 442.762C501.037 446.385 479.067 446.814 457.511 444.028C458.669 449.57 459.563 456.119 455.644 460.205C452.754 463.219 453.06 467.545 454.363 465.503C454.11 468.152 451.646 470.402 448.985 470.414C446.701 470.655 447.155 466.839 448.714 465.152C452.135 461.449 456.56 458.135 457.649 453.211C458.739 448.288 446.82 450.799 447.157 453.812C445 451.38 445.281 447.191 447.744 445.068C441.324 446.533 434.662 446.934 428.113 446.252C436.385 444.998 444.658 443.744 452.93 442.49C450.575 435.972 423.73 453.228 423.135 466.201C421.848 458.736 422.796 450.899 425.828 443.956C425.099 442.798 424.154 441.777 423.056 440.959C430.598 438.006 415.452 454.197 412.992 448.045C404.702 448.989 396.412 449.933 388.123 450.877C388.422 452.396 389.205 453.815 390.33 454.877C385.414 455.589 380.478 450.905 380.931 445.959C378.513 450.321 382.244 455.52 386.084 458.702C389.924 461.883 394.58 465.456 394.417 470.441C390.6 471.779 385.909 469.057 385.176 465.08C386.563 467.663 384.983 462.007 383.308 462.536C380.199 463.519 377.926 472.212 379.422 469.322C379.258 473.208 375.497 476.567 371.617 476.293C368.867 470.892 373.41 463.344 379.469 463.245C381.967 463.205 383.448 460.074 382.79 457.664C382.132 455.255 380.117 453.499 378.202 451.895C376.913 453.578 375.249 454.972 373.366 455.945C373.305 453.103 373.863 450.25 374.991 447.642C372.444 450.535 371.008 454.382 371.036 458.237C369.736 455.06 369.852 451.333 371.347 448.243C363.811 449.527 356.159 450.128 348.515 450.039C347.256 441.308 345.997 432.577 344.738 423.846C349.465 422.568 354.362 421.92 359.259 421.925C356.805 407.239 359.259 406.831 356.21 400.218C355.796 399.32 354.325 401.037 353.324 399.013C352.322 396.989 351.876 391.719 351.876 391.719C351.876 391.719 347.788 391.122 347.466 390.022C346.201 385.704 344.78 381.847 347.855 379.524C351.133 377.048 356.267 379.169 359.702 376.916C358.979 374.064 359.965 364.099 357.613 357.904C355.763 353.029 351.909 355.209 347.805 351.683C345.142 349.395 342.238 347.065 341.076 343.752C339.913 340.439 341.499 335.902 344.976 335.419C348.376 334.946 350.947 338.31 352.685 341.269C351.903 338.657 353.993 335.593 356.711 335.369C360.074 345.973 358.158 332.813 358.158 332.813Z" fill="white"/>
<ellipse cx="416.807" cy="312.403" rx="0.809357" ry="1.61867" fill="#FFB61D"/>
<path fill-rule="evenodd" clip-rule="evenodd" d="M125.101 223.624C125.453 223.9 125.515 224.408 125.239 224.76L114.613 238.326C114.337 238.678 113.828 238.739 113.477 238.464C113.125 238.188 113.063 237.679 113.338 237.327L123.965 223.762C124.24 223.41 124.749 223.349 125.101 223.624Z" fill="#E7EAEE"/>
<path fill-rule="evenodd" clip-rule="evenodd" d="M138.942 227.509C139.282 227.799 139.323 228.31 139.033 228.65L124.812 245.336C124.522 245.677 124.011 245.717 123.671 245.427C123.33 245.137 123.29 244.627 123.58 244.286L137.801 227.6C138.091 227.26 138.602 227.219 138.942 227.509Z" fill="#E7EAEE"/>
<path fill-rule="evenodd" clip-rule="evenodd" d="M161.503 228.61C161.857 228.884 161.921 229.392 161.648 229.746L149.95 244.854C149.676 245.208 149.168 245.272 148.814 244.999C148.461 244.725 148.396 244.217 148.67 243.863L160.368 228.755C160.641 228.401 161.15 228.336 161.503 228.61Z" fill="#E7EAEE"/>
<path fill-rule="evenodd" clip-rule="evenodd" d="M193.078 227.39C193.441 227.651 193.523 228.157 193.261 228.52L183.735 241.715C183.474 242.078 182.968 242.16 182.605 241.898C182.243 241.636 182.161 241.13 182.423 240.768L191.949 227.572C192.21 227.21 192.716 227.128 193.078 227.39Z" fill="#E7EAEE"/>
<path fill-rule="evenodd" clip-rule="evenodd" d="M409.482 225.029C409.799 225.344 409.801 225.856 409.487 226.173L398.331 237.422C398.016 237.74 397.504 237.742 397.186 237.427C396.869 237.112 396.867 236.6 397.181 236.283L408.337 225.034C408.652 224.716 409.164 224.714 409.482 225.029Z" fill="#E7EAEE"/>
<path fill-rule="evenodd" clip-rule="evenodd" d="M424.914 228.162C425.224 228.484 425.214 228.996 424.892 229.306L410.235 243.413C409.913 243.723 409.401 243.713 409.091 243.391C408.781 243.069 408.791 242.557 409.113 242.247L423.77 228.14C424.092 227.83 424.604 227.84 424.914 228.162Z" fill="#E7EAEE"/>
<path fill-rule="evenodd" clip-rule="evenodd" d="M460.125 235.236C460.434 235.56 460.422 236.072 460.099 236.381L450.436 245.623C450.113 245.932 449.601 245.921 449.292 245.598C448.983 245.275 448.994 244.762 449.317 244.453L458.98 235.211C459.303 234.902 459.816 234.913 460.125 235.236Z" fill="#E7EAEE"/>
<path fill-rule="evenodd" clip-rule="evenodd" d="M478.506 235.887C478.811 236.214 478.792 236.726 478.465 237.031L468.445 246.345C468.117 246.649 467.605 246.63 467.301 246.303C466.997 245.975 467.015 245.463 467.343 245.159L477.362 235.845C477.69 235.541 478.202 235.559 478.506 235.887Z" fill="#E7EAEE"/>
<path fill-rule="evenodd" clip-rule="evenodd" d="M302.094 295.172C301.77 292.334 301.631 289.476 301.677 286.621C299.882 285.917 297.884 286.033 295.96 286.159C288.612 286.639 281.264 287.12 273.916 287.6C272.701 287.68 271.461 287.757 270.286 287.442C269.085 287.12 267.711 286.427 266.716 287.173C265.854 287.819 265.926 289.111 266.083 290.176C266.379 292.182 266.675 294.187 266.971 296.192C267.021 296.533 267.088 296.905 267.352 297.127C267.596 297.331 267.94 297.349 268.257 297.357C278.567 297.631 288.886 297.536 299.189 297.074C300.494 297.015 302.241 296.47 302.094 295.172V295.172Z" fill="white"/>
<path fill-rule="evenodd" clip-rule="evenodd" d="M337.356 247.137C337.584 246.244 336.749 245.369 335.847 245.177C334.946 244.984 334.02 245.265 333.126 245.49C329.562 246.385 319.664 246.381 318.32 246.39C314.387 246.417 310.454 246.444 306.521 246.472C305.589 246.478 304.8 247.245 304.469 248.116C304.138 248.987 304.168 249.948 304.203 250.879C304.239 251.841 304.274 252.803 304.31 253.765C304.331 254.339 304.407 255.009 304.899 255.304C305.112 255.432 305.368 255.462 305.615 255.488C309.427 255.89 313.271 255.997 317.1 255.808C323.874 255.474 330.651 254.215 337.397 254.912C336.722 252.38 336.708 249.676 337.356 247.137Z" fill="white"/>
<path fill-rule="evenodd" clip-rule="evenodd" d="M459.221 447.553C459.301 446.997 459.756 446.559 460.259 446.309C461.63 445.626 463.362 446.101 464.519 447.105C465.676 448.109 466.363 449.544 466.91 450.974C467.106 451.484 467.268 452.117 466.908 452.527C466.773 452.681 466.583 452.775 466.394 452.854C464.81 453.524 462.914 453.449 461.423 452.591C459.933 451.734 458.904 450.093 458.854 448.374C459.499 448.46 459.816 449.175 460.151 449.733C461.303 451.649 464.07 452.372 466.012 451.265C464.173 449.403 461.781 448.095 459.221 447.553Z" fill="#00160A"/>
<path fill-rule="evenodd" clip-rule="evenodd" d="M449.744 431.173C450.302 430.48 450.861 429.788 451.419 429.095C451.05 432.206 448.492 434.931 445.41 435.497C444.459 434.766 442.847 435.252 442.459 436.387C441.886 436.504 441.309 436.054 441.121 435.501C440.932 434.948 441.053 434.334 441.266 433.79C441.587 432.969 442.106 432.243 442.62 431.526C444.352 429.11 446.356 426.511 449.268 425.915C450.021 425.76 450.87 425.774 451.477 426.247C452.083 426.719 452.252 427.767 451.646 428.239C450.943 427.296 449.529 427.142 448.432 427.566C447.336 427.989 446.481 428.859 445.663 429.703C444.871 430.522 444.079 431.34 443.287 432.159C442.851 432.608 442.453 433.439 442.998 433.748C443.619 432.413 445.5 432.305 446.587 431.313C447.529 430.453 448.16 428.808 449.417 429.023C448.762 430.533 447.57 431.805 446.106 432.558C445.477 432.882 444.746 433.162 444.433 433.796C445.404 434.24 446.579 433.99 447.483 433.42C448.386 432.851 449.074 432.004 449.744 431.173Z" fill="#00160A"/>
<path fill-rule="evenodd" clip-rule="evenodd" d="M423.408 427.971C424.944 428.242 426.608 427.381 427.276 425.973C427.943 424.564 427.554 422.731 426.371 421.715C426.713 421.297 427.372 421.245 427.849 421.496C428.327 421.747 428.639 422.236 428.819 422.745C429.394 424.374 428.752 426.234 427.632 427.55C426.512 428.866 424.978 429.747 423.477 430.601C422.781 430.997 422.054 431.403 421.255 431.452C420.457 431.502 419.568 431.078 419.358 430.306C419.289 430.054 419.304 429.764 419.462 429.556C420.24 428.537 422.072 430.956 422.909 429.984C422.708 429.207 422.507 428.429 422.306 427.652C422.668 427.778 423.031 427.904 423.408 427.971Z" fill="#00160A"/>
<path fill-rule="evenodd" clip-rule="evenodd" d="M409.334 425.58C407.621 425.371 406.402 423.52 406.59 421.805C406.777 420.09 408.121 418.647 409.72 418C410.21 417.802 410.822 417.685 411.225 418.025C411.629 418.366 411.352 419.248 410.847 419.092C409.612 418.71 408.432 419.951 408.09 421.198C407.872 421.991 407.859 422.89 408.298 423.586C408.738 424.281 409.727 424.656 410.43 424.228C410.937 423.92 411.452 424.634 411.573 425.215C411.693 425.796 411.96 426.563 412.549 426.494C413.518 426.012 413.88 424.849 414.432 423.919C414.984 422.988 416.233 422.178 417.082 422.849C417.192 422.935 417.29 423.053 417.296 423.192C417.302 423.343 417.2 423.475 417.103 423.59C416.157 424.709 415.111 425.743 413.982 426.678C413.227 427.303 412.181 427.907 411.327 427.425C410.519 426.968 410.255 425.692 409.334 425.58Z" fill="#00160A"/>
<path fill-rule="evenodd" clip-rule="evenodd" d="M417.578 443.127C416.74 442.382 415.887 441.619 415.34 440.641C414.793 439.663 414.599 438.413 415.129 437.426C415.274 437.156 415.498 436.895 415.801 436.846C416.103 436.797 416.452 437.078 416.363 437.372C415.977 438.658 416.539 440.167 417.671 440.887C418.109 441.166 418.696 441.687 418.329 442.054C417.891 442.49 418.689 443.081 419.299 443.181C420.47 443.372 421.642 443.563 422.813 443.755C422.585 444.721 421.394 445.189 420.423 444.982C419.452 444.775 418.664 444.092 417.922 443.432C417.807 443.33 417.693 443.228 417.578 443.127Z" fill="#00160A"/>
<path fill-rule="evenodd" clip-rule="evenodd" d="M374.427 472.492C374.543 471.774 374.659 471.055 374.775 470.337C374.842 469.925 374.912 469.504 375.11 469.137C375.347 468.697 375.746 468.373 376.135 468.06C377.202 467.202 378.269 466.345 379.336 465.487C380.176 466.127 380.345 467.483 379.687 468.31C379.633 467.549 379.14 466.835 378.447 466.516C377.671 468.818 376.267 470.906 374.427 472.492Z" fill="#00160A"/>
<path fill-rule="evenodd" clip-rule="evenodd" d="M456.757 461.958C457.151 464.071 457.96 466.106 459.125 467.913C460.042 469.336 459.203 471.198 458.363 472.668C457.985 472.815 457.627 472.322 457.69 471.921C457.753 471.52 458.046 471.2 458.236 470.841C458.981 469.431 458.056 467.759 457.235 466.391C456.414 465.024 455.709 463.159 456.757 461.958L456.757 461.958Z" fill="#00160A"/>
<path fill-rule="evenodd" clip-rule="evenodd" d="M304.006 297.031C303.99 297.521 303.967 298.036 303.711 298.454C303.244 299.216 302.218 299.366 301.327 299.432C289.301 300.334 277.218 300.464 265.176 299.821C265.026 299.813 264.871 299.803 264.736 299.738C264.404 299.576 264.315 299.153 264.265 298.788C263.93 296.341 263.595 293.895 263.26 291.448C263.02 289.698 262.817 287.772 263.788 286.296C265.106 284.29 267.903 284.051 270.304 284.017C281.215 283.864 292.126 283.712 303.037 283.559C303.497 283.552 304.041 283.589 304.285 283.979C304.426 284.204 304.422 284.487 304.413 284.753C304.278 288.846 304.142 292.938 304.006 297.031ZM302.094 295.172C301.77 292.335 301.631 289.476 301.677 286.621C299.882 285.918 297.884 286.033 295.96 286.159C288.612 286.639 281.264 287.12 273.916 287.601C272.701 287.68 271.461 287.757 270.286 287.442C269.085 287.121 267.711 286.428 266.716 287.173C265.854 287.82 265.926 289.111 266.083 290.177C266.379 292.182 266.675 294.187 266.971 296.192C267.021 296.533 267.088 296.906 267.352 297.127C267.596 297.331 267.94 297.349 268.257 297.358C278.567 297.631 288.886 297.537 299.189 297.074C300.494 297.015 302.241 296.471 302.094 295.172V295.172Z" fill="#FFB61D"/>
<path fill-rule="evenodd" clip-rule="evenodd" d="M447.933 451.438C448.483 449.502 449.456 447.687 450.765 446.158C450.742 448.234 449.65 450.27 447.933 451.438L447.933 451.438Z" fill="#00160A"/>
<path fill-rule="evenodd" clip-rule="evenodd" d="M452.861 463.147C452.502 464.253 451.949 465.297 451.235 466.215C450.931 466.606 450.542 467.002 450.047 467.027C450.69 465.529 451.429 463.924 452.861 463.147L452.861 463.147Z" fill="#00160A"/>
<path fill-rule="evenodd" clip-rule="evenodd" d="M461.681 469.073C462.476 469.63 463.271 470.187 464.066 470.743C464.243 470.867 464.441 471.09 464.315 471.266C463.107 471.15 462.014 470.24 461.681 469.073Z" fill="#00160A"/>
<path fill-rule="evenodd" clip-rule="evenodd" d="M463.138 468.763C462.316 469.014 461.619 467.668 462.298 467.142C462.76 467.589 463.1 468.161 463.273 468.78L463.138 468.763Z" fill="#00160A"/>
<path fill-rule="evenodd" clip-rule="evenodd" d="M452.684 445.594C453.283 446.353 453.303 447.446 452.979 448.358C452.656 449.27 452.038 450.042 451.432 450.796C450.865 451.5 450.149 452.273 449.248 452.205C449.094 451.592 449.662 451.065 450.126 450.635C451.537 449.328 452.462 447.506 452.684 445.594Z" fill="#00160A"/>
<path fill-rule="evenodd" clip-rule="evenodd" d="M459.374 465.461C460.378 464.546 461.886 464.221 463.178 464.643C464.47 465.065 465.497 466.216 465.768 467.547C465.967 468.524 466.067 469.891 467.059 469.988C467.237 470.626 466.1 470.867 465.688 470.348C465.277 469.829 465.352 469.093 465.249 468.439C464.972 466.688 463.079 465.372 461.342 465.721C460.633 465.864 459.667 466.122 459.374 465.461L459.374 465.461Z" fill="#00160A"/>
<path fill-rule="evenodd" clip-rule="evenodd" d="M384.512 476.692C384.032 475.15 385.134 473.377 384.456 471.91C384.234 471.428 383.843 471.049 383.501 470.642C382.371 469.3 381.732 467.553 381.727 465.798C381.725 465.264 381.967 464.56 382.499 464.612C383.199 464.68 383.02 465.724 382.973 466.426C382.885 467.757 384.045 468.784 384.775 469.9C385.862 471.564 386.027 473.789 385.198 475.595C384.893 476.26 385.498 476.951 385.919 477.55C387.012 479.107 386.921 481.393 385.708 482.859C385.253 482.554 385.232 481.881 385.399 481.359C385.566 480.836 385.871 480.347 385.903 479.799C385.969 478.65 384.855 477.791 384.512 476.692Z" fill="#00160A"/>
<path fill-rule="evenodd" clip-rule="evenodd" d="M408.129 314.289C408.758 313.595 409.834 314.351 410.711 314.68C412.411 315.318 414.287 314.091 416.085 314.35C415.083 316.414 412.256 316.656 409.98 316.361C409.41 316.288 408.811 316.184 408.371 315.814C407.932 315.444 407.743 314.715 408.129 314.289L408.129 314.289Z" fill="#00160A"/>
<path fill-rule="evenodd" clip-rule="evenodd" d="M412.553 307.711C412.219 307.286 412.27 306.686 412.338 306.15C412.386 305.769 412.434 305.388 412.482 305.006C412.594 304.109 412.964 302.968 413.868 302.961C414.812 302.954 415.173 304.186 415.192 305.13C415.209 305.949 415.165 306.83 414.668 307.48C414.172 308.131 413.059 308.355 412.553 307.711V307.711Z" fill="#00160A"/>
<path fill-rule="evenodd" clip-rule="evenodd" d="M406.876 303.444C407.32 303.546 407.422 304.123 407.431 304.578C407.462 306.088 407.15 308.05 405.666 308.328C404.939 306.958 405.075 305.174 406.001 303.929C406.212 303.645 406.531 303.364 406.876 303.444L406.876 303.444Z" fill="#00160A"/>
<path fill-rule="evenodd" clip-rule="evenodd" d="M409.81 305.423C409.922 305.618 409.847 305.861 409.783 306.075C409.152 308.187 409.851 310.635 411.501 312.096C410.268 312.876 408.544 311.799 408.117 310.404C407.69 309.008 408.146 307.513 408.6 306.126C408.785 305.56 409.514 304.906 409.81 305.423L409.81 305.423Z" fill="#00160A"/>
<path fill-rule="evenodd" clip-rule="evenodd" d="M339.625 257.105C337.459 257.243 335.293 257.381 333.127 257.519C323.755 258.115 314.383 258.712 305.011 259.309C303.689 259.393 301.91 259.124 301.757 257.808C301.283 253.729 301.369 249.585 302.014 245.53C302.283 243.84 304.472 243.388 306.183 243.332C316.535 242.99 326.888 242.649 337.24 242.308C338.515 242.266 339.644 243.245 340.179 244.402C340.714 245.56 340.776 246.871 340.83 248.145C340.934 250.583 341.037 253.02 341.14 255.457C341.158 255.881 341.162 256.349 340.888 256.672C340.592 257.022 340.082 257.076 339.625 257.105ZM337.356 247.137C337.584 246.244 336.749 245.369 335.847 245.177C334.945 244.984 334.02 245.265 333.126 245.49C329.562 246.385 319.664 246.381 318.319 246.391C314.387 246.418 310.454 246.445 306.521 246.472C305.589 246.478 304.8 247.245 304.469 248.116C304.138 248.987 304.168 249.948 304.203 250.879C304.238 251.841 304.274 252.803 304.31 253.765C304.331 254.339 304.407 255.009 304.899 255.304C305.112 255.432 305.368 255.462 305.615 255.488C309.427 255.89 313.271 255.997 317.1 255.808C323.874 255.474 330.651 254.216 337.397 254.912C336.722 252.38 336.708 249.676 337.356 247.137Z" fill="#FFB61D"/>
<path fill-rule="evenodd" clip-rule="evenodd" d="M182.774 422.853C182.332 422.996 181.67 423.019 181.59 422.561C182.261 421.763 183.646 421.726 184.357 422.488C183.979 422.902 183.346 423.06 182.817 422.875L182.774 422.853Z" fill="#00160A"/>
<path fill-rule="evenodd" clip-rule="evenodd" d="M416.795 300.722C417.396 301.365 417.948 302.086 418.201 302.929C418.368 303.489 417.571 303.925 417.03 303.703C416.49 303.48 416.187 302.92 415.865 302.433C415.544 301.945 415.07 301.45 414.487 301.492C413.896 301.534 413.512 300.727 413.803 300.212C414.094 299.696 414.799 299.533 415.367 299.701C415.935 299.868 416.39 300.289 416.795 300.722L416.795 300.722Z" fill="#00160A"/>
<path fill-rule="evenodd" clip-rule="evenodd" d="M207.383 407.562C206.674 404.16 205.888 400.741 204.405 397.598C202.922 394.455 200.677 391.574 197.632 389.899C196.028 389.017 194.256 388.494 192.567 387.788C190.499 386.924 188.549 385.779 186.786 384.396C188.36 383.509 190.31 384.342 191.914 385.173C195.655 387.111 199.481 389.115 202.303 392.242C206.058 396.405 207.604 402.071 208.72 407.565C208.315 407.797 207.787 407.796 207.383 407.562Z" fill="#00160A"/>
<path fill-rule="evenodd" clip-rule="evenodd" d="M189.845 436.932C189.853 436.661 189.913 436.339 190.162 436.231C190.953 435.886 191.219 438.115 191.932 437.629C192.761 437.064 193.931 438.3 193.499 439.205C193.066 440.11 191.702 440.239 190.906 439.629C190.11 439.019 189.819 437.935 189.845 436.932Z" fill="#00160A"/>
<path fill-rule="evenodd" clip-rule="evenodd" d="M187.202 427.089C186.31 425.596 186.631 423.676 187.266 422.058C187.649 421.082 188.235 420.058 189.235 419.745C190.236 419.432 191.55 420.398 191.155 421.369C190.221 421.669 189.248 422.025 188.612 422.772C187.977 423.52 187.839 424.78 188.578 425.425C188.945 425.746 188.872 426.334 188.709 426.793C188.546 427.253 188.322 427.748 188.486 428.207C188.649 428.666 189.455 428.816 189.57 428.342C189.696 427.821 190.505 427.842 190.888 428.218C191.27 428.594 191.422 429.151 191.775 429.554C192.129 429.958 192.894 430.107 193.134 429.627C193.362 429.17 194.106 429.2 194.417 429.606C194.727 430.012 194.664 430.606 194.418 431.054C193.882 432.027 192.512 432.429 191.536 431.899C190.962 431.588 190.565 431.035 190.079 430.599C189.593 430.163 188.898 429.83 188.298 430.088C187.725 430.334 187.225 429.549 187.253 428.925C187.282 428.302 187.522 427.624 187.202 427.089Z" fill="#00160A"/>
<path fill-rule="evenodd" clip-rule="evenodd" d="M166.218 324.956C167.377 323.954 167.789 322.18 167.192 320.77C166.968 320.243 166.751 319.419 167.307 319.282C168.998 320.761 169.141 323.675 167.604 325.312C167.337 325.597 166.979 325.86 166.592 325.808C166.204 325.756 165.923 325.211 166.218 324.956L166.218 324.956Z" fill="#00160A"/>
<path fill-rule="evenodd" clip-rule="evenodd" d="M163.537 316.027C164.4 316.05 165.051 316.921 165.125 317.781C165.199 318.642 164.844 319.477 164.466 320.253C164.233 320.734 163.842 321.287 163.316 321.197C162.919 321.129 162.688 320.722 162.517 320.358C162.137 319.547 161.768 318.681 161.853 317.79C161.938 316.899 162.642 316.003 163.537 316.027V316.027Z" fill="#00160A"/>
<path fill-rule="evenodd" clip-rule="evenodd" d="M169.597 320.076C168.857 320.278 168.446 319.229 168.469 318.462C168.49 317.782 168.586 317.072 168.984 316.52C169.381 315.969 170.371 315.307 170.748 316.22C171.126 317.133 170.901 318.515 170.197 319.56C170.047 319.784 169.858 320.005 169.597 320.076Z" fill="#00160A"/>
<path fill-rule="evenodd" clip-rule="evenodd" d="M161.086 325.436C161.34 325.388 161.594 325.341 161.848 325.293C161.925 326.14 162.746 326.713 163.537 327.024C164.329 327.335 165.21 327.533 165.805 328.14C166.02 328.36 166.168 328.763 165.918 328.942C165.808 329.02 165.662 329.018 165.527 329.009C163.451 328.872 161.193 327.513 161.086 325.436Z" fill="#00160A"/>
<path fill-rule="evenodd" clip-rule="evenodd" d="M160.813 314.821C160.247 314.693 160.232 313.787 160.697 313.442C161.163 313.096 161.813 313.175 162.37 313.336C163.597 313.693 164.726 314.381 165.605 315.309C164.078 315.99 162.171 313.846 160.813 314.821V314.821Z" fill="#00160A"/>
<path fill-rule="evenodd" clip-rule="evenodd" d="M125.402 426.341C126.873 427.03 128.845 425.639 128.689 424.022C129.636 424.842 130.681 425.998 130.256 427.176C130.097 427.616 129.75 427.961 129.381 428.248C128.087 429.252 126.447 429.695 124.829 429.949C123.135 430.214 121.233 430.244 119.898 429.166C118.58 428.102 118.219 426.027 119.099 424.579C119.315 424.222 119.622 423.888 120.027 423.788C120.915 423.57 121.661 424.607 121.65 425.521C121.639 426.435 121.183 427.283 121.03 428.184C121.003 428.345 120.985 428.512 121.025 428.67C121.191 429.328 122.2 429.352 122.702 428.893C123.203 428.435 123.388 427.735 123.734 427.151C124.081 426.567 124.787 426.053 125.402 426.341ZM125.431 429.168C125.718 428.9 126.004 428.632 126.291 428.365C126.183 428.021 125.721 427.846 125.413 428.032C125.105 428.218 125.044 428.708 125.298 428.963L125.431 429.168Z" fill="#00160A"/>
<path fill-rule="evenodd" clip-rule="evenodd" d="M118.641 436.007C118.985 436.978 120.33 437.227 121.269 436.805C121.453 436.723 121.64 436.61 121.724 436.427C121.967 435.895 121.19 435.358 121.301 434.784C121.395 434.298 122.04 434.161 122.524 434.262C123.008 434.363 123.506 434.593 123.976 434.438C124.521 434.259 124.779 433.645 124.916 433.088C125.052 432.531 125.159 431.915 125.593 431.541C126.027 431.166 126.904 431.328 126.922 431.901C126.958 433.01 126.111 433.945 125.225 434.613C124.339 435.282 123.324 435.852 122.743 436.797C122.191 437.695 121.871 439.025 120.822 439.129C120.486 439.162 120.153 439.043 119.849 438.897C117.659 437.848 116.356 435.217 116.849 432.84C117.068 431.786 118.123 430.628 119.044 431.185C119.79 431.635 119.64 432.764 119.26 433.548C118.88 434.332 118.35 435.186 118.641 436.007Z" fill="#00160A"/>
<path fill-rule="evenodd" clip-rule="evenodd" d="M177.305 364.576C178.304 378.47 187.486 390.23 196.275 401.037C198.771 404.108 201.432 407.302 205.112 408.758C212.039 411.501 220.64 407.348 227.04 411.162C193.553 411.239 160.07 413.073 126.774 416.653C123.909 416.961 120.949 417.274 118.195 416.428C115.44 415.582 112.922 413.253 112.807 410.373C111.344 373.572 109.881 336.771 108.418 299.97C108.147 293.152 107.873 286.307 106.629 279.598C105.001 270.818 104.962 261.832 104.928 252.902C104.884 241.292 104.84 229.682 104.796 218.071C142.538 216.437 180.338 216.16 218.1 217.24C219.649 219.544 219.962 222.436 220.221 225.2C224.604 272.003 225.964 319.031 227.322 366.019C227.729 380.098 228.136 394.178 228.543 408.258C227.845 408.025 227.147 407.792 226.448 407.559C224.802 363.096 223.156 318.633 221.51 274.169C221.478 273.32 221.392 272.358 220.722 271.835C220.21 271.434 219.505 271.419 218.854 271.421C183.849 271.549 148.845 271.676 113.84 271.804C111.126 271.814 107.314 273.225 108.194 275.793C112.446 288.188 110.947 301.691 110.998 314.796C111.026 322.078 111.549 329.348 112.072 336.612C112.71 345.471 113.348 354.329 113.986 363.188C115.501 359.257 117.016 355.325 118.531 351.394C118.882 350.482 119.199 349.346 118.551 348.615C113.736 343.182 115.245 333.478 121.483 329.765C122.681 329.052 124.021 328.524 125.002 327.534C127.763 324.749 126.458 319.835 128.494 316.482C131.516 311.506 140.852 311.32 141.177 305.506C141.47 300.255 146.237 296.02 151.399 295.014C156.561 294.008 161.91 295.646 166.559 298.104C171.097 300.504 175.595 304.399 175.791 309.529C175.867 311.547 175.254 313.521 174.648 315.448C172.45 322.427 169.869 329.939 163.798 334.025C171.63 342.251 176.491 353.247 177.305 364.576ZM171.536 383.151C176.042 392.023 184.595 398.343 188.993 407.268C189.19 407.669 189.396 408.093 189.768 408.339C190.192 408.619 190.738 408.605 191.245 408.591C195.092 408.481 198.953 408.875 202.698 409.761C193.832 402.071 187.146 392.207 181.08 382.161C178.892 378.537 176.713 374.689 176.498 370.461C175.872 358.133 171.347 346.032 163.731 336.317C160.931 332.746 154.907 333.437 151.691 336.638C148.475 339.839 147.445 344.604 146.977 349.118C146.824 350.587 146.721 352.111 147.208 353.505C147.694 354.899 148.919 356.138 150.395 356.19C151.871 356.243 153.308 354.691 152.796 353.305C153.32 354.428 153.845 355.551 154.369 356.674C152.218 358.987 148.045 358.234 146.067 355.773C144.088 353.311 143.921 349.818 144.596 346.733C146.191 339.451 152.271 333.351 159.547 331.732C159.633 330.312 157.533 329.89 156.24 330.482C154.947 331.074 153.714 332.166 152.314 331.92C151.033 331.695 150.303 333.282 149.849 334.5C147.287 341.363 139.961 344.909 134.037 349.217C132.017 350.686 130.023 352.348 127.599 352.946C125.174 353.545 122.149 352.657 121.285 350.314C113.868 369.48 112.111 390.797 116.291 410.919C116.588 412.349 117.903 413.392 119.307 413.797C120.71 414.202 122.204 414.088 123.66 413.97C145.251 412.224 166.842 410.477 188.433 408.731C183.29 398.822 173.616 391.691 169.209 381.432C168.181 379.04 167.456 376.505 166.151 374.251C164.174 370.838 160.951 368.213 159.338 364.615C157.389 367.295 155.441 369.975 153.492 372.655C153.054 373.258 153.256 374.095 153.477 374.808C153.965 376.387 154.476 378.008 155.516 379.292C156.556 380.577 158.264 381.463 159.865 381.052C163.13 380.214 166.849 381.624 168.738 384.416C164.745 383.663 160.752 382.91 156.759 382.157C156.18 382.048 155.573 381.926 155.125 381.545C154.744 381.221 154.526 380.751 154.319 380.297C153.576 378.665 152.833 377.033 152.09 375.402C151.442 373.979 150.807 372.261 151.633 370.934C152.333 369.81 153.787 369.472 154.877 368.722C157.886 366.65 157.493 362.067 156.121 358.681C154.749 355.294 152.695 351.808 153.487 348.242C155.11 353.518 156.771 358.874 159.801 363.489C162.038 366.895 164.974 369.819 167.025 373.341C168.838 376.453 169.905 379.94 171.536 383.151ZM107.419 221.445C107.511 229.691 107.604 237.937 107.696 246.182C107.716 248 108.384 250.457 110.196 250.313C145.99 247.468 181.946 246.66 217.832 247.893C218.826 247.927 219.647 247.013 219.868 246.044C220.089 245.074 219.86 244.066 219.647 243.095C218.019 235.693 217.245 228.104 217.345 220.526C217.361 219.324 215.759 218.918 214.557 218.896C179.376 218.253 144.18 218.447 109.008 219.478C108.662 219.488 108.296 219.504 108.005 219.692C107.463 220.041 107.412 220.8 107.419 221.445M221.392 268.01C221.527 261.824 221.151 255.627 220.271 249.503C217.39 250.587 214.23 250.919 211.187 250.459C208.169 250.002 205.104 249.976 202.052 249.951C188.062 249.835 174.071 249.72 160.082 249.967C143.156 250.266 126.243 251.095 109.34 252.058C108.879 252.084 108.38 252.125 108.031 252.427C107.576 252.82 107.538 253.499 107.537 254.1C107.533 258.892 107.738 263.684 108.154 268.458C108.179 268.747 108.212 269.055 108.396 269.279C108.685 269.632 109.214 269.637 109.67 269.613C143.095 267.811 176.599 268.974 210.073 269.005C213.872 269.008 217.722 268.991 221.392 268.01ZM143.387 302.541C142.481 304.73 142.443 307.273 141.144 309.254C138.504 313.278 131.946 313.222 129.477 317.352C127.477 320.697 129.005 325.564 126.38 328.445C125.06 329.892 123.026 330.411 121.379 331.47C117.926 333.691 116.486 338.363 117.546 342.329C118.607 346.294 121.842 349.466 125.631 351.046C126.305 351.327 127.027 351.567 127.751 351.478C128.57 351.377 129.274 350.873 129.939 350.386C134.524 347.024 139.109 343.663 143.695 340.301C145.383 339.063 147.136 337.75 148.048 335.866C149.592 332.673 148.477 328.357 150.914 325.78C151.854 324.786 153.205 324.226 154.049 323.149C154.893 322.071 154.789 320.054 153.45 319.771C151.991 319.462 152.376 317.14 153.535 316.201C154.694 315.262 156.34 314.674 156.776 313.247C157.188 311.902 156.569 309.889 157.9 309.433C158.665 309.171 159.424 309.767 160.101 310.209C163.09 312.157 167.604 311.138 169.465 308.093C170.188 306.91 172.049 308.169 172.388 309.514C172.726 310.859 172.777 312.592 174.054 313.135C175.318 311.151 174.937 308.453 173.698 306.454C172.459 304.454 170.507 303.016 168.556 301.701C164.554 299.003 160.162 296.546 155.349 296.184C150.536 295.821 145.234 298.082 143.387 302.541ZM157.734 319.866C156.621 323.946 150.888 325.715 150.418 329.918C151.49 331.094 153.456 330.538 154.781 329.657C155.457 329.208 156.109 328.674 156.478 327.952C156.846 327.23 156.869 326.282 156.351 325.659C155.9 325.117 156.916 324.383 157.519 324.748C158.122 325.112 158.272 325.898 158.455 326.579C158.846 328.029 159.646 329.367 160.739 330.398C161.649 331.256 162.979 331.921 164.128 331.426C164.601 331.222 164.976 330.845 165.327 330.467C168.959 326.542 171.218 321.37 171.628 316.038C171.675 315.432 171.649 314.717 171.152 314.367C170.665 314.023 170.004 314.222 169.413 314.303C168.822 314.383 168.037 314.161 168.01 313.566C168.685 312.912 169.84 312.833 170.598 313.388C170.917 313.622 171.231 313.069 171.22 312.674C171.187 311.541 170.823 310.42 170.183 309.485C168.776 311.055 166.95 312.327 164.878 312.714C162.806 313.1 160.484 312.477 159.147 310.847C158.341 312.569 157.983 314.499 158.118 316.395C158.167 317.076 157.177 317.286 156.53 317.066C155.884 316.847 155.145 316.465 154.577 316.842C154.025 317.209 154.087 318.1 154.528 318.594C154.97 319.088 155.645 319.287 156.284 319.464C156.767 319.598 157.25 319.732 157.734 319.866ZM117.002 359.235C117.101 358.816 117.147 358.267 116.769 358.061C115.819 360.856 114.926 363.672 114.091 366.504C113.771 367.592 113.472 368.819 114.022 369.81C114.419 369.827 114.623 369.35 114.714 368.963C115.476 365.72 116.239 362.477 117.002 359.235Z" fill="#00160A"/>
<path fill-rule="evenodd" clip-rule="evenodd" d="M206.39 441.034C226.996 439.372 247.698 438.886 268.36 439.579C267.758 432.632 267.155 425.685 266.553 418.738C245.473 419.688 224.393 420.638 203.314 421.588C202.665 427.759 200.272 433.737 196.482 438.65C194.656 441.018 196.226 444.361 197.398 447.111C198.571 449.861 198.665 454.029 195.784 454.828C191.983 452.957 189.275 449.031 188.875 444.814C173.287 445.493 157.698 446.173 142.11 446.853C136.316 447.106 129.165 448.341 127.44 453.878C126.767 449.515 121.005 448.512 116.591 448.571C103.399 448.749 90.2082 448.926 77.017 449.103C76.8158 443.081 76.6147 437.059 76.4136 431.038C76.3746 429.871 76.3473 428.648 76.8706 427.604C78.2757 424.803 82.3108 425.101 85.3613 425.82C84.3807 416.016 83.4002 406.212 82.4196 396.408C77.8713 397.449 79.3345 385.787 74.7564 386.687C71.985 387.233 69.3722 384.688 68.7807 381.926C68.1892 379.164 69.052 376.321 69.9057 373.629C72.4786 372.843 76.1659 373.621 78.7734 372.843C81.3809 372.065 82.97 370.562 82.8789 367.843C80.9874 311.369 76.9036 254.968 70.6399 198.81C66.641 200.531 61.8791 197.426 60.2703 193.381C58.6615 189.336 59.3506 184.78 60.1923 180.509C60.4877 179.01 60.8505 177.418 61.9512 176.358C63.3544 175.008 65.5111 174.923 67.4586 174.919C128.571 174.78 189.684 174.641 250.797 174.502C252.129 174.499 253.597 174.545 254.581 175.442C255.481 176.263 255.718 177.564 255.905 178.767C256.632 183.446 257.345 188.325 255.916 192.839C254.488 197.354 250.218 201.348 245.515 200.796C248.088 256.532 250.66 312.267 253.233 368.003C257.425 367.087 262.329 368.638 264.42 372.386C266.511 376.134 264.604 381.797 260.416 382.735C263.088 384.957 261.798 389.685 258.858 391.537C255.918 393.389 252.178 393.2 248.718 392.884C245.257 392.567 241.564 392.231 238.496 393.861C239.22 400.577 239.13 407.381 238.228 414.075C241.204 412.3 245.232 412.486 248.032 414.527C249.976 415.944 251.743 412.496 251.724 410.09C251.682 404.488 251.639 398.885 251.596 393.282C254.631 400.242 255.475 408.138 253.981 415.582C257.722 415.873 261.463 416.165 265.204 416.457C266.329 416.545 267.547 416.672 268.372 417.441C269.193 418.208 269.406 419.409 269.549 420.522C270.47 427.714 270.333 435.04 269.142 442.192C244.902 440.512 220.495 441.246 196.399 444.381C198.898 441.797 202.807 441.323 206.39 441.034ZM134.473 422.787C136.211 417.951 142.564 417.082 147.703 417.025C150.068 416.998 152.434 416.972 154.799 416.945C159.915 416.888 165.05 416.832 170.124 417.487C170.755 418.24 171.387 418.993 172.018 419.745C174.04 419.102 176.44 419.955 177.604 421.73C181.065 418.136 185.335 415.009 190.27 414.282C195.206 413.555 200.82 415.837 202.707 420.455C203.389 418.113 204.24 415.628 206.208 414.187C208.176 412.746 211.579 413.096 212.385 415.398C215.561 411.877 221.981 412.17 224.822 415.967C224.854 414.118 227.362 413.468 229.173 413.843C230.984 414.217 232.982 415.021 234.565 414.065C236.27 413.036 236.373 410.647 236.277 408.658C233.102 343.37 229.927 278.082 226.753 212.795C226.73 212.336 226.689 211.832 226.363 211.508C226.024 211.17 225.493 211.143 225.014 211.137C183.486 210.609 141.958 210.08 100.43 209.552C99.5376 209.541 98.5377 209.572 97.9161 210.212C97.33 210.815 97.2913 211.748 97.2884 212.589C97.1055 264.966 99.1923 317.352 103.541 369.548C103.712 371.599 104.844 374.365 106.816 373.779C106.916 379.671 107.016 385.563 107.116 391.455C107.139 392.79 107.053 394.351 105.957 395.113C105.347 395.537 104.565 395.597 103.824 395.644C97.761 396.026 91.6976 396.408 85.6343 396.791C86.5812 406.161 87.5282 415.531 88.4751 424.901C93.9018 425.083 99.344 424.797 104.722 424.048C102.145 415.911 101.239 407.249 102.076 398.754C103.894 398.903 104.467 401.256 104.56 403.079C104.783 407.452 105.005 411.825 105.228 416.198C105.345 418.511 105.521 420.985 106.945 422.812C108.37 424.638 111.533 425.258 112.924 423.406C117.879 416.81 129.147 416.486 134.473 422.787ZM249.637 341.716C247.44 294.791 245.242 247.866 243.044 200.941C186.14 200.365 129.236 199.79 72.3319 199.215C80.5081 256.487 82.8547 314.411 85.1907 372.217C90.5459 372.851 95.976 372.85 101.331 372.214C99.7895 349.382 98.2479 326.55 96.7064 303.719C96.1586 295.605 95.6106 287.488 95.3421 279.36C95.1187 272.598 95.0887 265.831 95.0588 259.066C94.9896 243.408 94.9204 227.751 94.8512 212.094C94.8436 210.374 95.3834 208.064 97.1033 208.072C140.273 208.283 183.442 208.494 226.611 208.705C227.561 208.71 228.681 208.805 229.174 209.617C229.413 210.011 229.443 210.493 229.466 210.953C231.218 245.473 232.969 279.995 234.34 314.533C234.568 320.293 234.786 326.053 235.004 331.813C235.457 343.793 235.91 355.774 236.363 367.754C236.407 368.898 237.969 369.173 239.111 369.097C243.035 368.837 246.959 368.576 250.883 368.316C250.468 359.449 250.053 350.583 249.637 341.716ZM61.6964 192.006C62.5105 194.837 64.8795 197.443 67.8232 197.557C110.608 199.211 153.474 196.712 196.257 198.426C213.594 199.12 231.063 200.5 248.221 197.911C249.395 197.734 250.629 197.51 251.535 196.743C252.384 196.025 252.815 194.938 253.153 193.879C254.543 189.517 254.88 184.822 254.125 180.307C253.936 179.177 253.604 177.945 252.644 177.321C251.928 176.855 251.02 176.838 250.166 176.836C224.393 176.775 198.621 176.713 172.848 176.652C168.681 176.642 164.514 176.632 160.347 176.622C146.696 176.59 133.045 176.557 119.395 176.525C101.649 176.482 83.9026 176.44 66.1591 176.715C63.2731 176.76 62.078 180.377 61.6828 183.236C61.2794 186.154 60.8822 189.174 61.6964 192.006ZM174.588 423.716C161.392 424.195 148.195 424.673 134.999 425.152C136.088 425.395 136.199 426.956 135.728 427.967C135.257 428.978 134.447 429.934 134.553 431.044C134.886 434.531 133.805 438.133 131.607 440.861C130.049 442.794 127.815 445.204 129.104 447.325C132.809 445.499 137.063 445.24 141.188 445.013C156.341 444.179 171.494 443.345 186.647 442.511C187.633 438.838 182.205 435.411 183.712 431.919C184.056 431.122 183.506 430.243 182.983 429.549C180.846 426.713 178.137 423.588 174.588 423.716ZM79.1995 431.283C79.5193 436.438 80.1664 441.572 81.1356 446.645C94.1235 446.605 107.111 446.566 120.099 446.526C120.748 446.524 121.671 446.004 121.25 445.51C119.188 443.093 117.127 440.676 115.065 438.259C113.918 436.914 112.727 435.481 112.416 433.74C111.945 431.109 113.439 427.869 111.518 426.01C101.43 427.722 91.1646 428.389 80.9396 427.997C79.5347 427.943 79.1124 429.88 79.1995 431.283ZM186.641 436.733C187.833 438.761 187.099 441.833 188.997 443.223C192.204 445.572 191.686 451.647 195.494 452.786C196.173 452.103 196.87 451.393 197.219 450.495C197.568 449.597 197.477 448.454 196.744 447.828C194.734 446.112 194.27 443.112 194.82 440.527C195.369 437.942 196.752 435.627 197.936 433.264C199.307 430.528 200.433 427.67 201.297 424.735C201.682 423.423 201.939 421.8 200.941 420.866C200.11 420.088 198.634 420.063 198.121 419.047C197.854 418.517 197.944 417.854 197.648 417.34C197.325 416.779 196.644 416.552 196.022 416.377C193.99 415.805 191.887 415.295 189.789 415.521C187.691 415.748 185.573 416.848 184.662 418.752C183.89 420.364 181.177 419.58 179.921 420.851C178.649 422.14 179.839 424.346 181.296 425.422C182.753 426.497 184.631 427.426 185.001 429.198C185.334 430.79 184.256 432.473 184.754 434.021C185.093 435.075 186.08 435.778 186.641 436.733ZM72.4786 384.284C73.1036 385.271 74.4697 385.395 75.6375 385.398C84.7913 385.418 93.9105 384.376 103.005 383.336C104.649 383.148 105.054 380.922 104.777 379.291C104.501 377.659 104.094 375.677 105.35 374.6C94.8756 373.848 84.339 373.958 73.8823 374.93C73.3691 374.977 72.8094 375.049 72.4533 375.421C72.0664 375.826 72.0486 376.447 72.0539 377.007C72.0707 378.798 72.0875 380.589 72.1044 382.38C72.1106 383.036 72.1276 383.731 72.4786 384.284ZM131.396 422.576C129.453 421.248 127.172 419.855 124.898 420.465C124.313 420.622 123.647 420.898 123.146 420.557C120.637 418.848 116.64 420.268 115.771 423.178C115.494 424.106 114.49 424.586 113.879 425.338C113.268 426.09 113.495 427.653 114.454 427.512C115.25 427.395 115.657 428.552 115.318 429.282C114.979 430.012 114.262 430.499 113.856 431.194C112.776 433.047 114.271 435.296 115.685 436.908C117.893 439.426 120.101 441.943 122.309 444.46C124.17 446.582 126.072 448.772 127.029 451.428C128.403 450.512 128.119 448.44 127.615 446.868C127.111 445.296 126.638 443.322 127.85 442.202C128.353 441.738 129.092 441.501 129.401 440.891C129.71 440.281 128.838 439.356 128.455 439.922C127.769 440.934 126.625 441.835 125.429 441.586C124.232 441.336 123.71 439.353 124.849 438.909C125.248 439.718 126.474 439.276 127.196 438.735C128.225 437.964 129.255 437.192 130.284 436.421C131.62 435.421 133.059 434.255 133.32 432.607C133.598 430.85 132.512 428.738 133.724 427.436C132.711 426.56 133.277 424.814 132.585 423.667C132.305 423.202 131.844 422.882 131.396 422.576ZM236.78 381.949C237.927 381.391 239.231 381.275 240.502 381.164C247.025 380.597 253.542 379.958 260.051 379.246C260.861 379.158 261.699 379.059 262.4 378.643C263.811 377.806 264.242 375.81 263.608 374.297C262.974 372.783 261.501 371.747 259.935 371.258C258.369 370.769 256.699 370.754 255.059 370.769C249.625 370.817 244.195 371.15 238.796 371.764C237.839 371.873 236.768 372.056 236.211 372.843C235.712 373.548 235.803 374.497 235.915 375.354C236.203 377.552 236.492 379.751 236.78 381.949ZM81.562 393.051C82.3105 394.243 83.8747 394.671 85.2793 394.581C86.6839 394.492 88.0286 393.994 89.4171 393.764C93.8849 393.025 98.7047 395.057 102.883 393.311C103.215 393.172 103.553 392.998 103.754 392.7C103.953 392.405 103.991 392.034 104.018 391.68C104.15 389.989 104.196 388.29 104.155 386.594C104.149 386.33 104.126 386.034 103.927 385.859C103.774 385.724 103.555 385.7 103.351 385.685C95.9559 385.115 88.611 387.423 81.1945 387.315C80.697 387.308 80.5729 388.002 80.6246 388.497C80.7141 389.353 80.8244 390.206 80.9554 391.057C81.062 391.748 81.1897 392.458 81.562 393.051ZM259.528 383.393C259.461 383.04 259.37 382.666 259.108 382.421C258.737 382.072 258.162 382.097 257.655 382.144C251.747 382.688 245.842 383.269 239.941 383.887C239.134 383.972 238.207 384.132 237.806 384.837C237.316 385.696 237.925 386.748 237.965 387.737C237.99 388.356 237.792 389.022 238.083 389.569C238.469 390.296 239.46 390.379 240.284 390.365C242.674 390.325 245.063 390.246 247.453 390.167C251.18 390.044 254.908 389.921 258.635 389.798C259.37 389.773 259.683 388.859 259.752 388.127C259.901 386.549 259.826 384.95 259.528 383.393ZM236.776 416.227C236.474 416.061 236.25 415.774 235.946 415.612C235.299 415.266 234.495 415.572 233.891 415.987C233.286 416.403 232.728 416.94 232.013 417.103C231.298 417.265 230.376 416.81 230.417 416.078C230.472 415.072 229.018 414.676 228.109 415.111C227.201 415.545 226.542 416.414 225.604 416.778C224.98 417.021 224.246 417.036 223.734 417.467C223.222 417.898 223.338 419.005 224.006 418.958C230.902 418.473 237.798 417.988 244.693 417.503C245.274 417.462 245.949 417.365 246.237 416.859C246.676 416.091 245.725 415.163 244.841 415.18C243.957 415.197 243.185 415.745 242.364 416.073C240.941 416.641 239.352 416.55 237.823 416.451C237.464 416.427 237.092 416.4 236.776 416.227ZM153.347 422.209C158.685 421.873 164.023 421.537 169.362 421.2C169.677 421.181 170.025 421.147 170.244 420.918C170.669 420.475 170.213 419.68 169.617 419.53C169.021 419.38 168.408 419.623 167.812 419.773C167.217 419.923 166.492 419.943 166.089 419.479C165.243 418.504 163.576 420.473 162.476 419.797C160.959 418.866 159.168 418.325 157.393 418.473C155.619 418.621 153.878 419.506 152.872 420.976C152.624 421.337 152.467 421.92 152.845 422.141C152.993 422.228 153.176 422.22 153.347 422.209ZM211.084 414.448C210.268 413.987 209.269 414.61 208.61 415.277C207.821 416.077 207.132 417.366 207.827 418.248C208.304 418.852 209.184 418.908 209.955 418.913C211.788 418.924 213.621 418.935 215.455 418.946C215.784 418.948 216.127 418.946 216.42 418.797C216.87 418.567 217.085 418.054 217.265 417.581C217.623 416.642 217.893 415.38 217.072 414.801C216.765 414.584 216.375 414.532 216.002 414.487C215.21 414.391 214.286 414.339 213.743 414.924C213.008 415.716 213.303 417.352 212.274 417.681C211.75 416.619 212.115 415.031 211.084 414.448ZM149.41 421.826C149.672 421.814 149.941 421.801 150.178 421.691C151.034 421.294 150.833 419.864 150.007 419.407C149.182 418.951 148.14 419.219 147.306 419.66C146.549 420.06 145.648 419.618 144.839 419.335C142.611 418.556 139.967 419.125 138.258 420.754C137.817 421.173 137.416 421.823 137.713 422.354C141.612 422.178 145.511 422.002 149.41 421.826ZM218.561 419.144C218.695 419.23 218.861 419.244 219.02 419.251C220.234 419.307 221.748 418.874 221.943 417.675C222.056 416.98 221.577 416.238 220.896 416.057C219.731 415.746 218.702 416.955 218.377 418.116C218.277 418.476 218.247 418.941 218.561 419.144ZM206.653 416.784C206.708 416.276 206.428 415.512 205.975 415.748C205.51 416.604 205.224 417.558 205.143 418.53C205.113 418.884 205.118 419.268 205.326 419.555C205.534 419.843 206.015 419.949 206.24 419.674C206.35 419.541 206.373 419.359 206.391 419.188C206.478 418.387 206.565 417.585 206.653 416.784ZM130.214 438.028C129.859 438.732 130.112 439.683 130.771 440.117C131.23 439.553 131.719 438.872 131.549 438.164C131.379 437.456 130.117 437.239 130.011 437.96M174.512 422.073C174.988 422.144 175.593 422.074 175.768 421.625C175.259 421.246 174.571 421.119 173.959 421.29C173.817 421.475 173.765 421.726 173.821 421.953C174.019 422.085 174.273 422.132 174.505 422.08L174.512 422.073Z" fill="#00160A"/>
<path fill-rule="evenodd" clip-rule="evenodd" d="M488.772 218.472C490.645 218.521 492.767 218.686 493.947 220.142C494.917 221.34 494.918 223.027 494.872 224.567C493.063 285.213 490.906 345.847 488.401 406.468C486.156 388.799 486.997 370.9 487.842 353.109C489.325 321.893 490.808 290.678 492.29 259.463C492.18 264.773 490.335 271.864 485.026 271.708C455.647 270.841 426.268 269.975 396.89 269.109C394.611 269.042 391.824 268.634 391.016 266.503C423.29 267.377 455.564 268.251 487.838 269.125C489.234 264.065 489.604 258.723 488.92 253.519C456.545 252.882 424.169 252.246 391.793 251.61C391.121 249.855 393.802 248.865 395.681 248.905C426.304 249.563 456.927 250.22 487.549 250.878C489.171 250.912 489.785 248.794 489.892 247.176C490.348 240.272 490.805 233.369 491.261 226.466C491.361 224.95 491.404 223.256 490.393 222.122C489.348 220.948 487.585 220.831 486.013 220.798C454.574 220.135 423.136 219.473 391.697 218.81C389.615 260.049 388.967 301.36 389.753 342.644C392.971 334.3 399.721 327.384 407.985 323.965C402.511 318.85 400.737 310.172 403.764 303.319C400.279 305.115 397.335 299.559 398.396 295.784C398.709 294.672 400.441 293.601 400.898 292.495C401.992 289.848 401.478 288.184 400.966 284.547C400.454 280.909 405.433 279.876 408.408 281.647C411.383 283.419 414.327 286.517 417.647 285.534C421.673 284.341 425.944 287.533 427.462 291.449C428.98 295.364 428.473 299.735 427.944 303.901C427.179 309.915 425.23 317.285 419.29 318.497C418.847 322.785 425.154 323.402 429.404 324.121C435.201 325.101 439.967 329.519 442.756 334.694C445.544 339.869 446.641 345.767 447.519 351.58C450.335 370.203 451.236 389.657 445.157 407.484C458.998 407.264 472.839 407.044 486.68 406.825C478.631 409.629 469.929 409.738 461.406 409.758C438.1 409.812 414.793 409.422 391.502 408.587C390.101 408.537 388.577 408.438 387.531 407.504C386.411 406.504 386.189 404.863 386.06 403.367C385.231 393.735 385.329 384.024 386.353 374.411C387.215 385.093 388.077 395.775 388.939 406.458C400.249 406.876 411.559 407.295 422.869 407.714C427.166 407.873 432.613 407.282 433.951 403.196C433.943 404.544 433.934 405.891 433.926 407.239C436.888 407.884 439.976 407.949 442.963 407.429C448.155 392.172 449.207 375.529 445.976 359.74C442.484 359.366 439.519 362.678 438.782 366.111C438.045 369.545 438.871 373.091 439.277 376.579C440.305 385.409 438.546 394.542 434.313 402.359C437.931 392.012 438.728 380.694 436.595 369.942C435.044 362.12 431.965 354.462 432.28 346.493C434.818 351.251 436.032 356.705 435.754 362.09C439.2 360.657 442.647 359.224 446.094 357.791C445.533 350.032 444.896 342.005 441.197 335.161C437.497 328.317 429.839 322.965 422.207 324.472C421.529 329.242 418.286 334.254 413.478 334.562C408.67 334.869 404.967 327.491 409.068 324.962C399.368 327.705 393.664 337.454 388.981 346.381C387.11 349.949 385.193 353.725 385.326 357.752C385.458 361.779 388.453 366.013 392.482 365.995C397.15 360.996 399.861 354.216 399.926 347.377C401.137 365.062 401.086 382.833 399.773 400.51C399.64 402.303 397.715 404.678 396.715 403.184C399.169 389.727 399.46 375.877 397.574 362.328C393.227 368.321 387.252 373.122 380.463 376.075C377.346 377.431 376.545 381.546 377.054 384.907C377.564 388.268 378.942 391.579 378.501 394.95C378.059 398.32 376.235 401.423 371.505 400.218C366.774 399.013 359.937 400.959 359.937 400.959C359.937 400.959 360.823 416.487 362.363 421.109C368.301 425.717 377.213 416.989 384.071 420.066C388.337 421.979 393.196 421.874 397.869 421.733C400.786 421.645 404.889 419.45 403.19 417.077C395.765 417.858 388.257 417.847 380.834 417.047C377.642 416.702 375.305 413.614 374.746 410.452C374.188 407.291 375.002 404.066 375.811 400.959C376.304 403.5 376.126 407.94 376.4 409.758C376.674 411.576 377.472 414.586 379.469 414.781C395.139 416.312 400.396 415.317 411.364 412.758C413.292 412.309 415.668 411.741 417.647 411.754C420.016 411.768 422.231 413.046 424.53 413.615C432.512 415.593 440.878 414.976 449.077 414.346C464.902 413.13 480.726 411.914 496.55 410.699C502.992 399.855 490.773 383.398 499.454 374.247C500.187 319.233 500.919 264.218 501.652 209.204C460.485 207.903 419.277 207.906 378.11 209.211C375.297 256.966 374.764 304.854 376.512 352.659C373.902 345.834 373.719 338.357 373.604 331.051C372.986 291.562 373.451 252.055 374.999 212.59C375.07 210.782 375.257 208.738 376.674 207.613C377.737 206.768 379.201 206.695 380.559 206.66C421.276 205.618 462.021 205.636 502.738 206.715C502.738 245.848 504.813 279.333 502.112 315.535C500.614 335.621 501.652 354.233 501.652 374.411C505.573 374.882 510.757 373.023 512.007 369.278C513.257 365.532 512.775 361.462 512.377 357.533C507.021 304.771 519.185 251.526 515.225 198.641C464.489 196.317 413.661 196.026 362.903 197.769C361.852 197.805 360.701 197.882 359.937 198.603C359.081 199.411 359.016 200.728 359.008 201.905C358.725 245.541 358.442 289.177 358.159 332.813C355.5 294.267 354.758 255.567 356.73 216.981C356.946 212.768 357.181 208.45 355.934 204.421C354.686 200.391 351.611 196.643 347.466 195.863C346.649 188.634 346.758 181.301 347.79 174.101C407.536 174.411 467.282 174.722 527.028 175.033C527.244 179.579 527.459 184.125 527.675 188.671C527.88 192.975 526.175 199.069 521.952 198.212C520.237 197.864 519.414 200.231 519.323 201.979C518.582 216.34 517.841 230.701 517.1 245.063C514.897 287.743 512.693 330.488 514.172 373.2C517.99 373.39 521.809 373.581 525.627 373.772C526.64 376.169 527.674 378.72 527.297 381.295C526.919 383.871 524.528 386.338 521.983 385.793C524.201 390.965 518.284 397.449 512.932 395.711C513.361 401.895 513.79 408.079 514.219 414.262C514.3 415.429 514.421 416.693 515.213 417.553C517.683 420.238 522.974 416.093 525.582 418.644C525.935 424.726 526.289 430.808 526.642 436.89C526.738 438.549 526.748 440.439 525.543 441.582C524.734 442.349 523.568 442.576 522.469 442.762C501.037 446.385 479.068 446.814 457.511 444.028C458.669 449.57 459.564 456.119 455.645 460.205C452.754 463.219 447.23 465.568 448.546 469.531C450.915 469.03 453.06 467.545 454.363 465.503C454.11 468.152 451.646 470.402 448.985 470.414C446.701 470.655 447.156 466.839 448.714 465.152C452.135 461.449 456.56 458.135 457.65 453.211C458.739 448.288 453.1 442.271 449.11 445.354C446.711 447.209 446.82 450.799 447.157 453.812C445 451.38 445.282 447.191 447.744 445.068C441.324 446.533 434.663 446.934 428.113 446.252C436.386 444.998 444.658 443.744 452.93 442.49C450.576 435.972 451.19 428.446 454.569 422.395C449.393 421.825 444.124 422.114 439.041 423.245C437.618 423.561 436.165 423.966 435.028 424.877C433.833 425.834 433.112 427.249 432.459 428.633C426.919 440.379 423.73 453.228 423.135 466.201C421.848 458.736 422.797 450.899 425.828 443.956C425.099 442.798 424.154 441.777 423.056 440.959C430.599 438.006 434.217 427.802 430.219 420.757C429.59 419.649 428.813 418.628 427.928 417.711C422.613 412.202 413.23 411.242 406.909 415.559C404.208 418.959 405.513 420.104 404.369 422.12C403.671 423.35 402.123 424.121 401.458 425.393C401.209 425.869 401.147 426.58 400.898 427.056C402.746 428.565 405.064 429.49 407.444 429.667C407.209 432.219 406.974 434.772 406.739 437.324C408.089 437.559 409.44 437.794 410.79 438.029C408.982 439.829 410.593 443.579 413.143 443.506C415.553 451.17 417.962 458.835 420.372 466.499C417.912 460.348 415.452 454.197 412.992 448.045C404.702 448.989 396.413 449.933 388.123 450.877C388.422 452.396 389.205 453.815 390.33 454.877C385.414 455.589 380.478 450.905 380.931 445.959C378.513 450.321 382.244 455.52 386.084 458.702C389.925 461.883 394.58 465.456 394.418 470.441C390.601 471.779 385.91 469.057 385.176 465.08C386.563 467.663 389.561 469.287 392.483 469.037C390.583 467.128 388.683 465.22 386.783 463.312C388.188 464.154 389.592 464.996 390.996 465.839C391.628 464.199 390.169 462.359 388.469 461.916C386.768 461.473 384.983 462.007 383.308 462.536C380.2 463.519 376.986 464.561 374.572 466.751C372.157 468.941 370.771 472.625 372.211 475.55C375.288 474.491 377.927 472.212 379.422 469.322C379.258 473.208 375.497 476.567 371.617 476.293C368.867 470.892 373.41 463.344 379.469 463.245C381.967 463.205 383.448 460.074 382.79 457.664C382.132 455.255 380.117 453.499 378.202 451.895C376.914 453.578 375.249 454.972 373.366 455.945C373.305 453.103 373.864 450.25 374.991 447.642C372.444 450.535 371.008 454.382 371.036 458.237C369.736 455.06 369.852 451.333 371.347 448.243C363.811 449.527 356.159 450.128 348.515 450.039C347.256 441.308 345.997 432.577 344.738 423.846C349.465 422.568 354.362 421.92 359.259 421.925C356.805 407.239 359.259 406.831 356.211 400.218C355.796 399.32 354.326 401.037 353.324 399.013C352.323 396.989 351.876 391.719 351.876 391.719C351.876 391.719 347.788 391.122 347.466 390.022C346.201 385.704 344.78 381.847 347.855 379.524C351.134 377.048 356.267 379.169 359.702 376.916C358.411 371.82 358.161 366.462 358.972 361.268C360.99 364.699 360.271 369.061 361.382 372.884C362.492 376.707 367.725 379.92 370.227 376.823C366.561 370.285 361.646 360.883 356.679 355.269C353.504 351.68 349 352.537 345.704 348.575C342.407 344.613 341.429 343.827 340.267 340.515C339.104 337.202 340.69 332.665 344.167 332.181C347.567 331.708 350.137 335.072 351.876 338.032C351.094 335.42 353.184 332.356 355.902 332.132C359.264 342.736 365.357 352.461 373.432 360.114C375.966 362.515 381.079 364.129 382.086 360.787C380.289 357.977 383.411 354.757 385.149 351.911C387.249 348.47 387.341 344.214 387.372 340.183C387.679 300.132 387.987 260.081 388.294 220.03C388.318 216.878 392.581 215.965 395.732 216.047C426.745 216.856 457.759 217.664 488.772 218.472ZM349.78 194.42C350.247 194.779 350.883 194.795 351.472 194.795C363.563 194.806 375.655 194.817 387.747 194.828C394.755 194.835 401.762 194.841 408.77 194.847C422.19 194.86 435.61 194.872 449.03 194.884C473.066 194.906 497.102 194.928 521.138 194.95C522.446 194.951 523.996 194.822 524.66 193.695C524.999 193.12 525.009 192.416 525.011 191.748C525.019 187.253 525.027 182.757 525.035 178.262C525.036 177.794 525.018 177.277 524.697 176.937C524.355 176.575 523.798 176.548 523.3 176.545C466.294 176.208 409.288 175.871 352.281 175.534C351.575 175.53 350.785 175.559 350.292 176.065C349.848 176.522 349.793 177.219 349.764 177.855C349.547 182.578 349.329 187.301 349.112 192.024C349.072 192.887 349.095 193.893 349.78 194.42ZM452.901 435.641C452.546 435.291 451.886 435.662 451.794 436.153C451.702 436.643 451.969 437.122 452.231 437.547C453.149 439.036 454.182 440.54 455.7 441.41C457.172 442.254 458.928 442.402 460.62 442.533C466.443 442.98 472.266 443.428 478.088 443.876C481.833 444.164 485.584 444.452 489.338 444.387C501.001 444.185 512.419 440.589 524.082 440.533C525.04 440.528 525.303 439.222 525.259 438.265C525.03 433.287 524.8 428.308 524.57 423.33C524.508 421.982 523.974 420.185 522.629 420.294C500.4 422.101 478.063 422.57 455.778 421.697C455.907 426.209 454.597 430.752 452.084 434.502C454.49 434.608 456.908 434.422 459.269 433.949C457.484 433.362 455.601 433.072 453.722 433.093C456.893 431.408 461.22 432.349 463.405 435.2C463.606 435.463 463.799 435.769 463.77 436.098C463.714 436.741 462.928 437 462.292 437.105C459.04 437.641 455.247 437.956 452.901 435.641ZM371.993 438.834C371.463 439.218 370.718 439.602 370.212 439.187C369.968 438.986 369.877 438.658 369.799 438.351C369.399 436.766 368.995 435.142 369.146 433.514C369.296 431.885 370.11 430.222 371.576 429.496C373.065 428.759 374.819 427.473 374.363 425.876C373.929 424.357 371.915 424.104 370.335 424.149C362.951 424.361 355.567 424.573 348.183 424.784C347.881 424.793 347.547 424.816 347.339 425.034C347.089 425.295 347.134 425.711 347.197 426.067C348.372 432.788 349.548 439.509 350.724 446.23C350.815 446.755 350.952 447.346 351.414 447.61C351.718 447.785 352.092 447.769 352.442 447.747C357.233 447.452 362.014 446.993 366.774 446.372C370.688 445.861 375.303 445.48 377.937 448.419C377.919 445.825 379.87 443.713 381.222 441.499C382.575 439.285 383.169 435.952 381.054 434.448C378.865 432.892 376.961 430.935 375.466 428.703C374.549 429.853 375.657 431.463 375.882 432.916C376.264 435.378 374.009 437.371 371.993 438.834ZM341.33 336.259C341.407 336.983 341.865 337.601 342.307 338.18C344.395 340.912 346.483 343.645 348.571 346.377C346.195 344.463 343.819 342.548 341.443 340.634C343.922 346.001 348.574 350.326 354.108 352.408C355.029 352.754 355.985 353.047 356.805 353.59C358.24 354.54 359.091 356.13 359.926 357.635C362.779 362.777 366.102 367.659 369.839 372.2C371.506 374.226 373.729 376.371 376.325 375.987C381.847 375.171 386.982 372.007 390.194 367.442C388.714 365.885 387.233 364.328 385.752 362.771C385.238 362.231 384.688 361.669 383.97 361.467C383.253 361.266 382.331 361.591 382.158 362.316C381.643 364.481 378.86 365.419 376.733 364.764C374.607 364.109 373.019 362.373 371.54 360.71C364.448 352.732 357.057 344.145 355.349 333.608C354.106 332.995 353.288 334.99 353.324 336.375C353.364 337.917 353.405 339.459 353.445 341.001C349.539 339.405 348.196 333.174 343.976 333.193C345.927 336.548 348.1 339.775 350.476 342.844C346.974 341.148 344.09 338.209 342.46 334.676C341.733 334.701 341.254 335.535 341.33 336.259ZM500.297 405.826C499.781 408.474 498.346 411.075 495.968 412.348C494.267 413.258 492.278 413.409 490.354 413.541C477.618 414.417 464.883 415.293 452.148 416.168C453.569 418.076 455.364 420.177 457.742 420.126C475.582 419.737 493.422 419.348 511.262 418.959C511.89 418.946 512.615 418.882 512.973 418.366C513.245 417.971 513.2 417.446 513.145 416.97C512.36 410.284 511.576 403.599 510.792 396.913C510.742 396.483 510.671 396.012 510.348 395.724C509.967 395.384 509.391 395.427 508.885 395.491C506.668 395.769 504.45 396.046 502.232 396.324C501.331 396.437 500.164 396.861 500.257 397.764C500.536 400.447 500.812 403.178 500.297 405.826ZM391.24 448.653C397.412 448.185 403.559 447.373 409.641 446.221C410.717 446.017 412.038 445.54 412.111 444.447C410.848 444.547 409.56 443.809 409.006 442.67C408.452 441.53 408.668 440.061 409.527 439.13C408.554 439.159 407.534 439.178 406.665 438.739C405.796 438.3 405.156 437.241 405.525 436.34C406.125 434.871 406.186 433.188 405.694 431.679C405.399 430.773 404.697 429.809 403.747 429.888C402.118 430.024 400.489 428.784 400.186 427.177C399.883 425.571 400.949 423.823 402.515 423.356C402.428 422.946 401.876 422.881 401.458 422.909C393.346 423.456 385.235 424.004 377.123 424.551C376.841 424.57 376.507 424.624 376.389 424.881C376.316 425.039 376.356 425.224 376.4 425.393C377.166 428.316 379.098 430.916 381.676 432.493C380.379 431.164 381.546 428.655 383.35 428.214C385.153 427.772 387.016 428.82 388.28 430.179C389.544 431.539 390.422 433.217 391.659 434.601C392.02 435.005 392.427 435.41 392.551 435.937C392.676 436.464 392.358 437.137 391.817 437.148C391.577 437.153 391.356 437.031 391.148 436.913C388.564 435.449 385.98 433.984 383.397 432.519C383.946 431.486 385.556 431.832 386.446 432.592C387.337 433.352 388.118 434.432 389.283 434.545C388.783 433.689 388.283 432.833 387.783 431.977C387.035 430.698 385.85 429.221 384.418 429.6C383.258 429.906 382.75 431.38 383.066 432.537C383.382 433.694 384.27 434.593 385.124 435.434C386.461 436.751 388.322 438.174 390.021 437.377C390.528 437.14 391.018 437.935 390.735 438.419C390.453 438.902 389.813 439.031 389.253 439.021C387.651 438.991 386.082 438.177 385.136 436.884C384.806 438.729 384.476 440.574 384.146 442.419C386.312 443.156 388.001 445.145 388.377 447.402C388.566 448.536 390.094 448.74 391.24 448.653ZM418.284 286.673C417.032 286.731 415.867 287.34 414.623 287.495C413.086 287.687 411.473 287.133 410.377 286.038C408.999 284.661 404.833 281.108 403.356 282.45C401.879 283.791 401.574 289.048 403.274 291.887C403.597 292.426 403.278 293.148 402.79 293.545C402.303 293.941 401.682 294.128 401.14 294.445C399.614 295.336 398.851 297.348 399.401 299.027C399.951 300.705 401.757 301.876 403.514 301.691C402.239 300.133 402.399 297.597 403.859 296.211C405.319 294.825 407.859 294.798 409.349 296.152C410.309 297.024 411.833 296.839 413.02 296.316C414.207 295.793 415.289 294.987 416.561 294.733C418.227 294.4 420.059 295.161 420.998 296.576C421.937 297.991 421.927 299.975 420.973 301.38C420.078 302.699 420.836 304.799 422.367 305.242C423.899 305.685 425.66 304.314 425.607 302.721C425.52 300.084 427.377 297.642 427.156 295.014C426.971 292.801 425.364 290.994 423.753 289.468C422.224 288.019 420.388 286.575 418.284 286.673ZM405.671 297.199C404.105 297.56 403.567 299.982 404.833 300.972C405.925 300.012 407.68 299.911 408.875 300.74C408.265 301.776 406.598 301.207 405.548 301.794C404.659 302.29 404.453 303.459 404.369 304.474C404.141 307.221 404.087 309.982 404.208 312.736C404.288 314.571 404.456 316.443 405.193 318.125C405.929 319.808 407.33 321.294 409.122 321.698C410.692 322.051 412.359 321.533 413.697 320.637C415.035 319.742 416.096 318.499 417.117 317.254C418.412 315.675 419.689 314.04 420.463 312.15C421.237 310.26 421.462 308.058 420.637 306.19C419.956 304.649 419.652 302.943 419.758 301.262C419.842 299.925 420.135 298.42 419.298 297.375C418.279 296.101 416.264 296.367 414.776 297.034C413.287 297.701 411.782 298.673 410.169 298.433C408.608 298.201 407.209 296.844 405.671 297.199ZM347.94 386.788C347.94 387.447 348.115 388.155 348.39 388.669C349.112 390.022 355.666 388.698 356.679 388.597C362.488 388.016 368.297 387.436 374.106 386.855C374.996 386.766 376.071 386.538 376.35 385.687C376.488 385.265 376.376 384.807 376.264 384.377C376.001 383.373 375.739 382.368 375.476 381.364C375.318 380.758 375.143 380.122 374.702 379.678C373.965 378.935 372.775 378.976 371.733 379.068C364.678 379.692 357.624 380.315 350.569 380.939C349.634 381.021 348.538 381.21 348.128 382.053C347.948 382.423 347.944 382.85 347.944 383.261C347.943 384.437 347.941 385.612 347.94 386.788ZM498.299 382.849C498.563 383.216 499.085 383.252 499.537 383.254C507.548 383.293 515.56 383.332 523.572 383.37C524.1 383.373 524.664 383.365 525.102 383.071C525.83 382.582 525.896 381.556 525.888 380.68C525.879 379.626 525.864 378.544 525.48 377.562C525.096 376.58 524.255 375.704 523.207 375.593C515.669 374.789 508.119 377.496 500.557 376.958C499.449 376.88 498.477 377.823 498.138 378.881C497.8 379.939 497.946 381.083 498.095 382.184C498.127 382.416 498.162 382.659 498.299 382.849ZM497.971 387.071C497.758 389.327 497.915 391.618 498.435 393.824C505.082 393.597 511.724 393.222 518.354 392.7C519.451 392.614 520.89 392.153 520.81 391.056C520.727 389.903 520.643 388.751 520.559 387.598C520.532 387.22 520.496 386.818 520.262 386.521C519.942 386.112 519.365 386.033 518.848 385.988C512.394 385.422 505.9 385.309 499.43 385.648C499.067 385.667 498.676 385.699 498.399 385.934C498.083 386.203 498.01 386.657 497.971 387.071ZM376.012 390.512C375.897 389.635 374.694 389.499 373.816 389.598C367.524 390.305 361.232 391.012 354.94 391.719C354.673 391.749 354.392 391.784 354.174 391.944C353.745 392.259 353.751 392.891 353.809 393.421C353.989 395.054 354.342 396.833 355.622 397.863C357.349 399.254 359.86 398.655 362.03 398.194C366.068 397.337 370.263 397.222 374.343 397.857C375.234 397.996 376.074 397.259 376.369 396.406C376.664 395.554 376.55 394.621 376.433 393.726C376.293 392.655 376.152 391.583 376.012 390.512ZM417.667 330.534C418.341 329.644 418.957 328.712 419.512 327.743C419.935 327.005 420.332 326.146 420.086 325.331C419.926 324.801 419.518 324.39 419.182 323.949C418.135 322.577 417.73 320.735 418.105 319.05C418.137 318.906 418.174 318.753 418.124 318.615C417.929 318.071 417.136 318.59 416.839 319.085C415.559 321.22 413.351 322.777 410.91 323.265C410.379 323.371 410.519 324.198 410.239 324.604C409.068 326.305 406.655 328.557 408.875 331.19C410.543 333.168 410.897 333.604 411.364 333.747C413.77 334.486 416.147 332.54 417.667 330.534ZM435.146 421.992C435.802 421.874 436.458 421.756 437.114 421.637C438.391 421.407 439.714 421.159 440.773 420.409C442.171 419.419 443.043 417.608 444.708 417.204C445.111 417.106 445.669 416.691 445.327 416.455C445.244 416.397 445.136 416.396 445.035 416.397C440.566 416.453 436.099 416.652 431.643 416.992C432.198 418.451 432.843 419.875 433.574 421.254C433.72 421.527 433.884 421.815 434.16 421.955C434.458 422.107 434.816 422.051 435.146 421.992ZM448.248 417.272C446.181 417.573 444.417 418.932 442.998 420.465C442.655 420.836 443.014 421.566 443.518 421.52C444.065 420.655 445.243 420.508 446.265 420.447C448.608 420.309 450.952 420.171 453.296 420.032C452.683 418.035 450.315 416.971 448.248 417.272ZM421.71 312.062C421.279 313.777 420.323 315.356 419.003 316.533C419.087 316.971 419.727 316.929 420.145 316.772C421.646 316.207 423.194 315.589 424.287 314.416C425.381 313.244 425.874 311.351 424.99 310.013C424.689 311.349 422.044 310.734 421.71 312.062ZM382.595 446.32C382.084 447.361 382.064 448.857 383.066 449.44C383.924 449.939 385.156 449.358 385.438 448.407C385.72 447.455 385.126 446.372 384.221 445.966C383.661 445.714 382.865 445.768 382.595 446.32ZM378.178 421.519C378.026 421.759 377.986 422.163 378.256 422.252C380.104 422.055 381.967 422.011 383.822 422.12C384.031 421.671 383.753 421.116 383.336 420.849C382.919 420.581 382.404 420.528 381.911 420.482C380.553 420.356 378.904 420.364 378.178 421.519ZM460.619 436.09C460.928 435.992 461.142 435.653 461.096 435.331C458.937 434.881 456.68 434.912 454.535 435.421C456.352 436.473 458.616 436.722 460.619 436.09ZM371.484 436.304C372.002 434.298 372.365 432.252 372.569 430.19C370.557 431.395 370.01 434.48 371.484 436.304ZM422.624 309.969C423.445 309.902 424.169 309.202 424.264 308.385C424.359 307.567 423.814 306.719 423.03 306.467C422.29 307.205 421.882 308.265 421.937 309.308C421.947 309.51 421.985 309.732 422.141 309.86C422.272 309.968 422.456 309.983 422.624 309.969ZM386.009 451.09C385.342 450.399 384.135 450.329 383.393 450.937C383.706 451.646 384.262 452.246 384.945 452.612C385.259 452.78 385.642 452.9 385.966 452.751C386.556 452.48 386.46 451.557 386.009 451.09ZM386.569 446.78C386.635 445.763 386.088 444.731 385.21 444.214C384.332 443.697 383.163 443.719 382.306 444.27C383.892 444.77 385.362 445.635 386.569 446.78ZM374.399 432.965C374.27 432.653 374.006 432.326 373.671 432.371C372.98 433.47 372.985 434.968 373.684 436.062C374.53 435.312 374.831 434.009 374.399 432.965ZM375.21 452.208C375.046 452.489 375.195 452.902 375.5 453.014C375.948 452.787 376.242 452.287 376.223 451.785C375.862 451.632 375.392 451.862 375.29 452.24M489.644 251.689C489.434 251.843 489.224 251.997 489.015 252.151C489.146 252.389 489.277 252.627 489.408 252.865C489.791 252.669 489.946 252.127 489.724 251.759L489.644 251.689Z" fill="#00160A"/>
<ellipse cx="405.476" cy="313.212" rx="0.809326" ry="1.61868" fill="#FFB61D"/>
<path fill-rule="evenodd" clip-rule="evenodd" d="M422.402 403.1C423.782 386.81 424.94 370.499 426.542 354.23C426.941 350.171 438.39 355.087 433.639 390.281C432.888 395.845 429.309 404.159 422.922 404.586L422.402 403.1Z" fill="#E7EAEE"/>
<path fill-rule="evenodd" clip-rule="evenodd" d="M141.744 347.304C142.771 369.417 139.214 355.408 148.428 361.33C149.996 362.338 151.71 364.219 151.413 366.059C150.827 369.673 147.344 372.228 146.105 375.673C139.975 392.723 167.755 393.485 172.793 396.167C174.478 397.063 173.721 400.339 172.606 401.888C168.555 407.519 144.982 392.229 142.012 389.944C122.331 374.799 124.676 364.891 140.127 349.334L141.744 347.304Z" fill="#E7EAEE"/>
<ellipse cx="161.057" cy="322.924" rx="0.809334" ry="1.61867" fill="#FFB61D"/>
</svg>
